<svg id="Layer_1" data-name="Layer 1" xmlns="http://www.w3.org/2000/svg" viewBox="0 0 364 84.5"><title>dadArtboard 4@1x</title><path d="M39.93,31.25q0,4.27,0,5.42v1.68q0,2.21-.43,6.58Q39,49.78,36,52a12.52,12.52,0,0,1-7.56,2.18A7.48,7.48,0,0,1,23,51.94a10.38,10.38,0,0,1-2.93-5.42,17.7,17.7,0,0,1,1.34-10.37,10.61,10.61,0,0,1,4.7-4.85,17.06,17.06,0,0,1,6.24-1.92l1.68-.24a.47.47,0,0,0,.53-.53q0-1,.1-2.88.14-1.54.14-3,0-.58-.1-1.82-.1-1-.19-3.22l-.24-3.22a2.64,2.64,0,0,1,1.82-2.83,5.73,5.73,0,0,1,.91-.38,2.91,2.91,0,0,1,.48-.1,1.55,1.55,0,0,1,.86.29.75.75,0,0,1,.38.67A10.19,10.19,0,0,0,39,14.21q.24,1.15.34,1.54a25.27,25.27,0,0,1,.58,5.66q0,3.84,0,5.76V28q0,.58.19.7a1.46,1.46,0,0,0,.77.12h.72l4.08,0a1.18,1.18,0,0,0,.67-.19,1,1,0,0,0,.14-.67,10,10,0,0,1,.24-1.51q.19-.84.24-1.08a6.17,6.17,0,0,0,.19-1.58q0-.53-.1-1.49a5.7,5.7,0,0,1-.1-.86,2.85,2.85,0,0,1,.14-.91,4.06,4.06,0,0,0,0-.72V19.1a10.63,10.63,0,0,1,.34-2.35,3.91,3.91,0,0,1,1.73-2.3.42.42,0,0,1,.41-.07.38.38,0,0,1,.26.31,5.11,5.11,0,0,1,.14.67,4.86,4.86,0,0,0,.14.67,17.87,17.87,0,0,1,.62,2.71q.19,1.32.48,3.91.14,1.73.34,5.18a2.49,2.49,0,0,0,.22.89c.08.11.36.2.84.26l1.3.1q.77,0,1.2,0,1.15.1,1.68.19c.1,0,.18.07.26.22l.17.31a0,0,0,0,1,0,0s-.1,0-.19,0a.9.9,0,0,1-.29,0,6.18,6.18,0,0,1-1-.1q-.53,0-1.58,0H52.6A.74.74,0,0,0,52,30a2,2,0,0,0-.26.77l0,1.39q.1,3.17.1,4.75A25.82,25.82,0,0,0,52,40.08a1.32,1.32,0,0,1-.19,1.06,11.22,11.22,0,0,1-1.25,1.15.33.33,0,0,1-.22,0,.55.55,0,0,1-.31-.1,1.6,1.6,0,0,0-.62-.14,2.06,2.06,0,0,0-.72.14,1.51,1.51,0,0,1-.43.1,1.28,1.28,0,0,1-1.08-.26,1.62,1.62,0,0,1-.5-1q-.24-2.4-.24-5.71,0-2.64,0-3.94V29.86c0-.22-.11-.34-.24-.34l-.48,0-3.36,0-1.68.1a1.13,1.13,0,0,1-.31,0,1.3,1.3,0,0,0-.36,0c-.1,0-.14,0-.14.1a3.44,3.44,0,0,0,0,.79l0,.6ZM21.74,43a12.65,12.65,0,0,0,.65,3,15,15,0,0,0,1.32,3,3.83,3.83,0,0,0,1.22,1.3,13.85,13.85,0,0,0,2,1,3.47,3.47,0,0,0,1.25.24,4.43,4.43,0,0,0,2.71-1,4.13,4.13,0,0,0,1.61-2.3L33,46.08q.43-1.73.72-3.22a34.93,34.93,0,0,0,.48-6.14q0-.48.1-1.54,0-1.3.24-3.89.19-1.78-1-1.44l-1.34.29q-2.16.48-3.31.84a7.65,7.65,0,0,0-2.11,1,11.11,11.11,0,0,0-3.7,4.7A15.58,15.58,0,0,0,21.74,43Z"/><path d="M71.66,32.21q.43-1,.53-1s0,0,0,.1a2.91,2.91,0,0,1-.34,1.06,20.16,20.16,0,0,1-4.66,8.35,6.94,6.94,0,0,1-2,1.54l-.19.12-.24.17a6.34,6.34,0,0,1-3.7,1.3,4.6,4.6,0,0,1-3.17-1.2,5.59,5.59,0,0,1-1.73-3.26,25.79,25.79,0,0,1-.34-2.9q-.14-1.94-.14-3.43a11.13,11.13,0,0,1,0-1.3q.38-3.17.67-4.54a7.54,7.54,0,0,1,1.32-2.81A7,7,0,0,1,61,22.13a6.47,6.47,0,0,1,2.4-.58q2,0,2.69,2.54a2.7,2.7,0,0,1,.1.82,5.94,5.94,0,0,1-.91,2.74,16.35,16.35,0,0,1-2.4,3A5,5,0,0,1,60.43,32a1,1,0,0,0-.67.72,11.09,11.09,0,0,0-.24,2.16,12.69,12.69,0,0,0,1.2,5.18,2.93,2.93,0,0,0,2.74,2.06,3.61,3.61,0,0,0,1.8-.5,6.26,6.26,0,0,0,1.61-1.32A28.07,28.07,0,0,0,69.5,37,21.15,21.15,0,0,0,71,33.79Q71.56,32.35,71.66,32.21ZM65,24.14a.37.37,0,0,0-.07-.34.44.44,0,0,0-.36-.14h-.1a2,2,0,0,0-1,.53q-.29.34-.77,1a18.37,18.37,0,0,0-2.06,4.27c0,.1-.1.26-.19.48a1.59,1.59,0,0,0-.14.62v.19a1,1,0,0,0,.5,0,1.15,1.15,0,0,0,.43-.29,2.59,2.59,0,0,1,.36-.31l.43-.43a15.25,15.25,0,0,0,2.4-3.46l.38-.67Z"/><path d="M83.32,45.6l1.1-1a50.61,50.61,0,0,0,4.06-3.94,16.32,16.32,0,0,0,2.81-4.22c.1-.42.2-.79.31-1.13l.31-.94.58-1.82q0-.24.1-.82a2.1,2.1,0,0,1,.34-1,2.57,2.57,0,0,1,0,.58,4.45,4.45,0,0,1-.17,1.15,7.69,7.69,0,0,0-.22,1,15.34,15.34,0,0,1-1.3,3.94,15.84,15.84,0,0,1-2.21,3.17q-1.39,1.58-4.66,4.85a14.1,14.1,0,0,1-1.34,1.2,2,2,0,0,0-.77,1.78V55q0,2.4-.34,5.76l-.19,2.45q-.24,2.16-.24,2.69a15.24,15.24,0,0,1-.19,2.4q-.19,1.2-.58,2.88-.1.38-.34,1.58a7.54,7.54,0,0,1-.77,2.16q-.19.34-.41.82c-.14.32-.25.56-.31.72q-.43,1-.79,1.66a6.45,6.45,0,0,1-.89,1.22,6.62,6.62,0,0,1-4.9,2.26,15.42,15.42,0,0,1-6.29-1.54l-.89-.41A3.9,3.9,0,0,1,64,78.86a5.39,5.39,0,0,1-1.78-3.31,14,14,0,0,1-.14-2,8.85,8.85,0,0,1,0-1.1,10.17,10.17,0,0,1,.77-2.83,9.43,9.43,0,0,0,.62-1.49c.19-.58.34-1,.43-1.25a9.73,9.73,0,0,1,1.3-2.21l.72-.86q.14-.14,1.34-1.78l1.34-1.78a26.3,26.3,0,0,1,2.45-2.83,41.29,41.29,0,0,0,3.55-4,9.7,9.7,0,0,1,.94-1q.6-.58.94-.86L78.09,50a3,3,0,0,0,.72-1.78L79,45.65a28.94,28.94,0,0,0,.24-3.89c0-.06,0-.53.14-1.39a1.89,1.89,0,0,0-.1-1.06.37.37,0,0,0-.38-.24h-.48q-1.34.1-1.87.1a8.37,8.37,0,0,1-3.29-.5,3.34,3.34,0,0,1-1.58-1.27,9.08,9.08,0,0,1-.84-2.11,8.92,8.92,0,0,1-.38-2.54l0-1.15a28.44,28.44,0,0,1,.38-4.46l.14-.62a3.17,3.17,0,0,1,.17-.91c.08-.19.14-.34.17-.43l0-.1.55-.79c.24-.34.42-.49.55-.46a3.72,3.72,0,0,1,1.46.41,3.18,3.18,0,0,1,1.46,1.56,1.69,1.69,0,0,1,.14.82l0,1.2,0,5.81a15.57,15.57,0,0,0,.19,2,7.52,7.52,0,0,0,.38,1.2,1.94,1.94,0,0,0,1.87,1.34,2.72,2.72,0,0,0,.86-.14c.32-.13.48-.3.48-.53v-.67A18.36,18.36,0,0,1,79.53,33l.14-1.15A2.92,2.92,0,0,1,80,30.82a4.92,4.92,0,0,0,.34-1,.63.63,0,0,1,.36-.41,1.36,1.36,0,0,1,.65-.17.55.55,0,0,1,.38.1,1.28,1.28,0,0,1,.58,1.06q0,1.49.1,4.37v-.53q.1,0,.1,6.77l0,2.54V46a.32.32,0,0,0,.29,0,.68.68,0,0,0,.29-.22l.14-.17Zm-4.66,5.23a.76.76,0,0,0-.5.14l-.22.19a6.41,6.41,0,0,0-.94.94c-.3.37-.5.62-.6.74L75.26,54a54,54,0,0,0-3.7,4.13q-1.54,2-4.85,6A18.77,18.77,0,0,0,64,68.93a14.21,14.21,0,0,0-1.2,5.33,8.18,8.18,0,0,0,.1,1.1,4.64,4.64,0,0,0,1.68,2.52,10.41,10.41,0,0,0,3.17,1.82,6.92,6.92,0,0,0,3.07.5,4.29,4.29,0,0,0,1.87-.84,6.69,6.69,0,0,0,1.63-1.56,7.86,7.86,0,0,0,1.34-2.88q.86-3.27,1.25-4.94c0-.19.06-.44.1-.74a3.52,3.52,0,0,1,.14-.74,10.13,10.13,0,0,0,.43-2.26q.1-1.2.1-1.44.14-1.15.34-3.55l.29-3.46q.1-1.15.19-3.26A32.7,32.7,0,0,1,78.67,50.83Z"/><path d="M91.1,47.52a1.88,1.88,0,0,1-.62-.14.52.52,0,0,1-.29-.17.36.36,0,0,1-.1-.22.42.42,0,0,1,.19-.34,3.41,3.41,0,0,0,.82-1,8.14,8.14,0,0,0,.6-1.3q.26-.72.36-1a1,1,0,0,0,.14-.53.7.7,0,0,0-.14-.43.93.93,0,0,1-.19-.48.83.83,0,0,1,.1-.24,1.53,1.53,0,0,1,1.3-.82,1.92,1.92,0,0,1,1.68,1,.86.86,0,0,1,0,.62A7.26,7.26,0,0,0,94.6,44l-.29,1.06A3.12,3.12,0,0,1,91.1,47.52Z"/><path d="M128.15,31.73q1.25-1.78,1.06-1.3a13.17,13.17,0,0,1-3.41,4.51,9.26,9.26,0,0,1-.86.58,1,1,0,0,0-.67,1.06l0,.58a19.32,19.32,0,0,1-.72,5.57,8.27,8.27,0,0,1-1,2.21,4.34,4.34,0,0,1-3.89,1.87,6.76,6.76,0,0,1-3.55-1A5.25,5.25,0,0,1,113,43.54a30.12,30.12,0,0,1-1.54-4.46,19.42,19.42,0,0,1-.77-5.71l0-1.49v-.14a6.12,6.12,0,0,1,0-.91,23.48,23.48,0,0,1,.29-3,11,11,0,0,0,.29-2q0-.38,0-1.15a8.79,8.79,0,0,1,.12-1.3,80.84,80.84,0,0,1,3.43-12.19Q117.07,5,119.95,5a2.19,2.19,0,0,1,2,1.3A6.6,6.6,0,0,1,122.44,9a18.83,18.83,0,0,1-1.06,5.81,52.61,52.61,0,0,1-2.3,5.88q-1.25,2.66-3.36,6.89a3.17,3.17,0,0,0-.29,1.34l0,2.88a39.53,39.53,0,0,0,.24,4.7,28,28,0,0,0,1.2,6,12.56,12.56,0,0,0,.72,1.49,5.37,5.37,0,0,0,.67.82,2.2,2.2,0,0,0,1.58.72,2.1,2.1,0,0,0,1.63-.86,4.23,4.23,0,0,0,1-1.63,19.33,19.33,0,0,0,.77-6.1.82.82,0,0,0-.62-.86,2.79,2.79,0,0,1-.72-.29,2.84,2.84,0,0,1-1.25-1.68,4.92,4.92,0,0,1-.14-1.2,4.53,4.53,0,0,1,.19-1.34,1.7,1.7,0,0,1,1.39-1.2,1.49,1.49,0,0,1,1.54.86,2.61,2.61,0,0,1,.34,1l.24,1.54.14.77a1.34,1.34,0,0,0,.19.41c.1.14.19.22.29.22l0,0,.31-.17a.64.64,0,0,0,.26-.22A16.34,16.34,0,0,0,128.15,31.73ZM121,8.93a3.57,3.57,0,0,1,0-.41,1.88,1.88,0,0,0,0-.5,2.83,2.83,0,0,0-.43-1.3.62.62,0,0,0-.58-.34.64.64,0,0,0-.53.24,10.53,10.53,0,0,0-.62,1.1,27.37,27.37,0,0,0-1.44,4.37q-1.2,4.75-1.63,6.72-.1.58-.19,2.4a32.82,32.82,0,0,1-.29,3.7.13.13,0,0,0,.14.14.2.2,0,0,0,.14,0l.24-.43q.67-1.73,2.21-5.42t2.26-5.33A26.92,26.92,0,0,0,121,8.93Zm2.21,25.49-.29-2a1.9,1.9,0,0,0-.38-1,.56.56,0,0,0-.38-.19.32.32,0,0,0-.29.14.73.73,0,0,0-.34.38,2.87,2.87,0,0,0-.24,1.2,3.28,3.28,0,0,0,.43,1.63,1.27,1.27,0,0,0,.48.43,1.22,1.22,0,0,0,.53.29.74.74,0,0,0,.29-.1.39.39,0,0,0,.19-.38Z"/><path d="M143.56,32.21q.43-1,.53-1s0,0,0,.1a2.91,2.91,0,0,1-.34,1.06,20.16,20.16,0,0,1-4.66,8.35,6.94,6.94,0,0,1-2,1.54l-.19.12-.24.17a6.34,6.34,0,0,1-3.7,1.3,4.6,4.6,0,0,1-3.17-1.2,5.59,5.59,0,0,1-1.73-3.26,25.79,25.79,0,0,1-.34-2.9q-.14-1.94-.14-3.43a11.13,11.13,0,0,1,0-1.3q.38-3.17.67-4.54a7.54,7.54,0,0,1,1.32-2.81,7,7,0,0,1,3.19-2.3,6.47,6.47,0,0,1,2.4-.58q2,0,2.69,2.54a2.7,2.7,0,0,1,.1.82,5.94,5.94,0,0,1-.91,2.74,16.35,16.35,0,0,1-2.4,3,5,5,0,0,1-2.4,1.39,1,1,0,0,0-.67.72,11.09,11.09,0,0,0-.24,2.16,12.69,12.69,0,0,0,1.2,5.18,2.93,2.93,0,0,0,2.74,2.06,3.61,3.61,0,0,0,1.8-.5,6.26,6.26,0,0,0,1.61-1.32A28.07,28.07,0,0,0,141.4,37a21.15,21.15,0,0,0,1.49-3.22Q143.47,32.35,143.56,32.21Zm-6.62-8.06a.37.37,0,0,0-.07-.34.44.44,0,0,0-.36-.14h-.1a2,2,0,0,0-1,.53q-.29.34-.77,1a18.37,18.37,0,0,0-2.06,4.27c0,.1-.1.26-.19.48a1.59,1.59,0,0,0-.14.62v.19a1,1,0,0,0,.5,0,1.15,1.15,0,0,0,.43-.29,2.59,2.59,0,0,1,.36-.31l.43-.43a15.25,15.25,0,0,0,2.4-3.46l.38-.67Z"/><path d="M152.59,37a.67.67,0,0,0-.53.34,4.17,4.17,0,0,1-3.55,1.87,10,10,0,0,1-1.15-.1q-3.74-.72-4.42-4a15.91,15.91,0,0,1-.29-2.93,11.65,11.65,0,0,1,1.92-6.53,6.52,6.52,0,0,1,5-2.88,3.85,3.85,0,0,1,2.54.62,1.28,1.28,0,0,0,.62.24.79.79,0,0,0,.58-.34.59.59,0,0,1,.53-.34.87.87,0,0,1,.62.29,1.6,1.6,0,0,1,.62,1.34,15.59,15.59,0,0,1,0,2L155,28q0,.72-.19,3.26T154.7,36a12.21,12.21,0,0,1,0,1.25A3.21,3.21,0,0,0,155,38.4a3.8,3.8,0,0,0,1.08,1.49,2.32,2.32,0,0,0,1.51.58,2,2,0,0,0,1.1-.34,6.75,6.75,0,0,0,1.39-1.1,8.5,8.5,0,0,0,1.15-1.39,8.07,8.07,0,0,0,1-1.82q.43-1.1.58-1.39t.24-1.2q.19-1,.29-1t.1,1v.19A13.82,13.82,0,0,1,160,39.84a4,4,0,0,1-3,1.34,4,4,0,0,1-2.21-.7,4,4,0,0,1-1.54-1.85Zm-5.28-6a3.6,3.6,0,0,0,0,.67A7.07,7.07,0,0,0,147.4,33a14.51,14.51,0,0,0,.43,1.61l.43,1.32a2.17,2.17,0,0,0,1.44,1.49,1,1,0,0,0,.46.07.63.63,0,0,0,.36-.26l.38-.48a7.92,7.92,0,0,0,1.3-3.84q.19-2.21.48-6.14.1-1,.1-1.39a1.05,1.05,0,0,0-.14-.62,2,2,0,0,0-1.73-.86,2.83,2.83,0,0,0-1.54.67A3.93,3.93,0,0,0,148.31,26,9.79,9.79,0,0,0,147.31,31Z"/><path d="M183.35,32.64c0-.19.1-.26.22-.22s.15.17.12.36a47.32,47.32,0,0,1-1.25,4.92,29,29,0,0,1-1.68,4.39,10.49,10.49,0,0,1-1.58,2.45,3.6,3.6,0,0,1-2.93,1.54,5.92,5.92,0,0,1-5-3.5l-.34-.67a2.27,2.27,0,0,1-.24-.67.79.79,0,0,0-.38-.58.62.62,0,0,0-.65,0,3.7,3.7,0,0,1-.65.22,10.53,10.53,0,0,1-1.73.14q-3.5,0-4.13-2a24.3,24.3,0,0,1-.82-3.1,15.07,15.07,0,0,1-.24-2.71,33.24,33.24,0,0,1,.72-5.9,1.69,1.69,0,0,1,.48-.91,4.85,4.85,0,0,1,1-.74l.82-.46a.53.53,0,0,1,.36-.07l.26,0a.71.71,0,0,1,.34.19.46.46,0,0,1,.14.34v.14a5.1,5.1,0,0,0-.19,1.49q0,.67,0,1.18c0,.34.06.63.1.89l.14,2.16q.14,2,.31,3.38a13.67,13.67,0,0,0,.6,2.66,3.16,3.16,0,0,0,.34.67,1.41,1.41,0,0,0,.91.58q.38,0,.82-.62a7.94,7.94,0,0,0,.82-2.45q.43-1.92.58-2.93.1-.77.19-2.3a3,3,0,0,1,.29-1.25.6.6,0,0,1,.62-.34q.43.1.43.38.1,1.34.1,2l0,1.82q0,.53,0,1.63,0,2.3.24,5.18a8.75,8.75,0,0,0,1.15,3.65,3.06,3.06,0,0,0,2.11,1.54,5.74,5.74,0,0,0,.86.1,2.35,2.35,0,0,0,1.73-.58,13.39,13.39,0,0,0,2-3,19.08,19.08,0,0,0,1.25-3.17L182,37.1q.19-.53.67-2.26Z"/><path d="M194.87,15.31a1,1,0,0,0,.34-.67q0-.58-.86-.89a5.47,5.47,0,0,0-1.87-.31,3.06,3.06,0,0,0-1,.1q-2,.67-3,1.06a12.8,12.8,0,0,1-1.92.67.79.79,0,0,0-.43.1.51.51,0,0,0-.36.17,1.26,1.26,0,0,0-.12.41v1.87q0,.82,0,2.45t0,4.61q0,1.87-.19,5.62l0,1.3q-.1,1.73-.1,2.54a2,2,0,0,0,0,.48q.1,1.1.1,3.41,0,.58,0,1.68t.24,3.41a3.91,3.91,0,0,0,1,2.21,1.76,1.76,0,0,0,1.44.53,4.23,4.23,0,0,0,1.56-.31,2.42,2.42,0,0,0,1.13-.79,19.73,19.73,0,0,0,2.5-3.67,22.1,22.1,0,0,0,1.82-4.2q.19-.67.48-2.21l.34-1.54.19-.82c.1,0,.14,0,.14.1V33a7.46,7.46,0,0,1-.29,2.06,24.08,24.08,0,0,1-2.16,6.48,12.86,12.86,0,0,1-2.54,3.7,5.45,5.45,0,0,1-2.93,1.58,8.91,8.91,0,0,1-1.82.24q-5.14,0-5.14-8.74l0-3.46q0-1.15,0-3.41l0-1.2q.1-1.44.1-2.16a12.89,12.89,0,0,1,.1-1.34q0-.86,0-2.28t0-2.81l.1-5.09a.78.78,0,0,0-.1-.46.7.7,0,0,0-.43-.17,1.49,1.49,0,0,0-.53,0,3,3,0,0,1-.48,0,.82.82,0,0,1-.34,0q-1.34-.24-3.12-.72a12.37,12.37,0,0,1-2.64-1q-1.82-1.05-1.82-2a4.38,4.38,0,0,1,0-.77,1.65,1.65,0,0,1,.5-.41,1.36,1.36,0,0,1,.65-.17,1,1,0,0,1,.72.29,1.76,1.76,0,0,1,.86,1.3c0,.06-.07.18-.22.34a.68.68,0,0,0-.22.38.52.52,0,0,0,.24.38,3.81,3.81,0,0,0,1.63.48,4.61,4.61,0,0,0,.86,0q1,0,2.38-.1a7.39,7.39,0,0,0,1.56-.19l.31,0a.34.34,0,0,0,.24-.12,1.12,1.12,0,0,0,.07-.53,5,5,0,0,1,.48-2,1.06,1.06,0,0,0,.19-.46,3,3,0,0,1,.1-.41.85.85,0,0,1,.34-.6,3.12,3.12,0,0,1,1-.41l.46-.14a1.92,1.92,0,0,1,.55-.1,1.24,1.24,0,0,1,.38,0l.17.12a.2.2,0,0,1,.12.17l0,.1a3.92,3.92,0,0,0-.1,1q0,.53.1,1.58a3.09,3.09,0,0,0,0,.79.23.23,0,0,0,.24.22s.3-.1.82-.29A13,13,0,0,1,191,12a5.55,5.55,0,0,1,2,.34,6.23,6.23,0,0,0,.79.31,3.17,3.17,0,0,1,.84.41,4.23,4.23,0,0,1,1.15,1l.24.34a1.48,1.48,0,0,1,.48,1.15,2.25,2.25,0,0,1-.14.84c-.1.24-.21.38-.34.41a2.6,2.6,0,0,1-.58.1.9.9,0,0,1-.48-.1.65.65,0,0,1-.43-.62v-.19A2.27,2.27,0,0,1,194.87,15.31Z"/><path d="M208.7,32.06a.83.83,0,0,1,0,.72,30.6,30.6,0,0,1-1.49,3.7,42.91,42.91,0,0,1-4.56,7.39,10.25,10.25,0,0,1-2.45,2.4,4.43,4.43,0,0,1-2.59.77,10.15,10.15,0,0,1-1.06-.1,3.22,3.22,0,0,1-2.16-1.54,3.85,3.85,0,0,1-.24-1.78,33.7,33.7,0,0,1,.34-4.42,5,5,0,0,0,0-.84,4.92,4.92,0,0,1,0-.84l.24-2.54q0-.19.34-3a21.25,21.25,0,0,1,.48-3,2.51,2.51,0,0,1,1-1.37,5.12,5.12,0,0,1,1.39-.67,4.92,4.92,0,0,1,1.54-.29,1.38,1.38,0,0,1,.62.14.79.79,0,0,1,.19.14.33.33,0,0,1,.1.24l0,.1a2.39,2.39,0,0,0-.36.79,8.24,8.24,0,0,0-.19,1c0,.35-.07.58-.07.67q-.1,1.06-.1,1.87L199.41,34a22.68,22.68,0,0,1-.31,2.69q-.19,1.44-.48,3.94a4,4,0,0,0,0,.72,9.29,9.29,0,0,0,.12,1.37q.12.79.17,1.18a2,2,0,0,0,.34.82.64.64,0,0,0,.67.53.9.9,0,0,0,.58-.24,6,6,0,0,0,1.15-1.2q1.34-1.82,2-2.83,2-3.26,3.65-6.58.1-.24,1-1.92C208.34,32.19,208.5,32.06,208.7,32.06Zm-9.6-8.26a5.91,5.91,0,0,0-1.3-.24,1.61,1.61,0,0,1-.43-.19,2.1,2.1,0,0,0-.38-.19.46.46,0,0,1-.29-.43.28.28,0,0,1,0-.19,8.34,8.34,0,0,1,.48-1.42,2,2,0,0,1,.82-.84,2.49,2.49,0,0,1,1.2-.43,2.26,2.26,0,0,1,1.3.62.56.56,0,0,1,.29.48l0,.19a20.58,20.58,0,0,1-.67,2.16q-.14.48-.82.48Z"/><path d="M217,2.78a3.7,3.7,0,0,1,.67,0q3.17,0,3.55,3.6.1,1.15.1,1.68,0,.82-.19,2.54-.43,3.22-4.46,12.62-1.06,2.4-1.7,3.7a17.88,17.88,0,0,1-1.56,2.54,5.21,5.21,0,0,0-.82,2.54l-.19,1.92q-.19,1.34-.24,2l-.1,1.73q-.1,1.25-.19,3.65l0,3.12,0,3.17a12.79,12.79,0,0,0,.77,4.13,3.47,3.47,0,0,0,.38.74.84.84,0,0,0,.62.31,1.75,1.75,0,0,0,1.54-.77,6,6,0,0,0,.82-2,25.71,25.71,0,0,0,.48-5q0-1.3,0-2l-.14-1.68q-.29-3.26-.48-4.7l-.77-3.74a2.13,2.13,0,0,0-.12-.29.87.87,0,0,1-.07-.38.46.46,0,0,1,.14-.34.71.71,0,0,1,.34-.19,5,5,0,0,1,.77,0,28.3,28.3,0,0,0,5.42-.67,10.56,10.56,0,0,0,1.63-.77q1.15-.72,1.25-.48l-.34.38-1,.62a4.93,4.93,0,0,1-1.49.65q-.72.17-2.21.46l-1,.1q-1.15.1-1.63.19t-.38.62v.14a2.88,2.88,0,0,0,.19.58,31.54,31.54,0,0,1,.91,5.18l.24,3.31a16,16,0,0,1,.14,2.16,27.3,27.3,0,0,1-.48,4.85,8.62,8.62,0,0,1-1,3.17,2.91,2.91,0,0,1-2.78,1.68,9.92,9.92,0,0,1-1.27,0,4.41,4.41,0,0,1-.94-.38l-.29-.12A.36.36,0,0,1,211,53a1.33,1.33,0,0,0-.65-.6,3.93,3.93,0,0,1-.65-.36,2.8,2.8,0,0,1-.77-.67,12.75,12.75,0,0,1-1.82-6.43c0-.32,0-.69,0-1.1s-.06-.74-.1-1l0-1.3q0-.38.1-1.25a10.23,10.23,0,0,0,.1-1.1,8,8,0,0,0-.1-1.06,5.74,5.74,0,0,1-.1-.86,7.89,7.89,0,0,1,.1-1.06q.77-5.57,1.25-8.35l.38-2.45q.67-4,.86-6a33.87,33.87,0,0,1,1.39-5.66,47.1,47.1,0,0,1,2.93-7.42Q215.46,3,217,2.78Zm3,4.8a8,8,0,0,0-.19-1.82,2.82,2.82,0,0,0-.77-1.15,1,1,0,0,0-.62-.19.87.87,0,0,0-.62.29,4.7,4.7,0,0,0-.67,1,9.59,9.59,0,0,0-.94,2.14Q215.9,9,215.8,9.22a33,33,0,0,0-.82,3.67q-.43,2.42-.82,4.87-.24,1.87-.67,4.42-.19,1.06-.48,3.17c0,.16,0,.24,0,.24a.23.23,0,0,0,.29-.14l.29-.58.72-1.68q1.63-3.65,2.4-5.47l2.93-7.34A26.69,26.69,0,0,0,220.07,7.58Z"/><path d="M244.41,32.64c0-.19.1-.26.22-.22s.15.17.12.36a47.32,47.32,0,0,1-1.25,4.92,29,29,0,0,1-1.68,4.39,10.49,10.49,0,0,1-1.58,2.45,3.6,3.6,0,0,1-2.93,1.54,5.92,5.92,0,0,1-5-3.5L232,41.9a2.27,2.27,0,0,1-.24-.67.79.79,0,0,0-.38-.58.62.62,0,0,0-.65,0,3.7,3.7,0,0,1-.65.22,10.53,10.53,0,0,1-1.73.14q-3.5,0-4.13-2a24.3,24.3,0,0,1-.82-3.1,15.07,15.07,0,0,1-.24-2.71,33.24,33.24,0,0,1,.72-5.9,1.69,1.69,0,0,1,.48-.91,4.85,4.85,0,0,1,1-.74l.82-.46a.53.53,0,0,1,.36-.07l.26,0a.71.71,0,0,1,.34.19.46.46,0,0,1,.14.34v.14a5.1,5.1,0,0,0-.19,1.49q0,.67,0,1.18c0,.34.06.63.1.89l.14,2.16q.14,2,.31,3.38a13.67,13.67,0,0,0,.6,2.66,3.16,3.16,0,0,0,.34.67,1.41,1.41,0,0,0,.91.58q.38,0,.82-.62a7.94,7.94,0,0,0,.82-2.45q.43-1.92.58-2.93.1-.77.19-2.3a3,3,0,0,1,.29-1.25.6.6,0,0,1,.62-.34q.43.1.43.38.1,1.34.1,2l0,1.82q0,.53,0,1.63,0,2.3.24,5.18a8.75,8.75,0,0,0,1.15,3.65,3.06,3.06,0,0,0,2.11,1.54,5.74,5.74,0,0,0,.86.1,2.35,2.35,0,0,0,1.73-.58,13.39,13.39,0,0,0,2-3,19.08,19.08,0,0,0,1.25-3.17l.43-1.34q.19-.53.67-2.26Z"/><path d="M241.91,28.75a91.23,91.23,0,0,1,.79-11.28,40.78,40.78,0,0,1,2.78-10.94q2-4.66,5.3-4.37,3.94.38,3.94,4.94,0,6-6.82,19.3l-1,1.82a4.64,4.64,0,0,0-.67,2.54q0,1.92.29,5.66a4.16,4.16,0,0,0,.24,1q.1.24.36,1.34a10.19,10.19,0,0,0,.94,2.38,2.16,2.16,0,0,0,2,1.27,3.16,3.16,0,0,0,.91-.14,10.7,10.7,0,0,0,1.73-1q.86-.43,2.83-4.51A29.88,29.88,0,0,0,257,32.69a11.81,11.81,0,0,0,.38-1.15q.38-1.1.58-1.51c.13-.27.19-.33.19-.17a6.4,6.4,0,0,1-.43,1.78l-.86,2.69a35.45,35.45,0,0,1-1.42,4,12.62,12.62,0,0,1-1.85,3,6.16,6.16,0,0,1-3.6,2.3,4,4,0,0,1-.72.1h-.19a10.29,10.29,0,0,1-1.75-.34,4.94,4.94,0,0,1-1.42-.82,7.35,7.35,0,0,1-2.5-2.76,11.17,11.17,0,0,1-1-3.72q-.19-1.92-.48-5.38a9,9,0,0,1,0-1.1C241.9,29.25,241.91,29,241.91,28.75Zm4.42-3.5.34-.53q1.78-4.94,4.51-12,1.15-2.88,1.49-3.91a6.17,6.17,0,0,0,.34-1.9,10.12,10.12,0,0,0-.14-1.54A2.26,2.26,0,0,0,252.23,4a1,1,0,0,0-.86-.43,1,1,0,0,0-.62.19,4.52,4.52,0,0,0-1.15,1,15.79,15.79,0,0,0-1.25,4.37q-.77,3.74-1.44,8t-.72,5.11a12.74,12.74,0,0,0-.1,1.3A7.32,7.32,0,0,0,246.33,25.25Z"/><path d="M275.7,62.16a9.07,9.07,0,0,1-2.35-.34,5.88,5.88,0,0,0-1.06-.24,12,12,0,0,1-1.92-.58,8.18,8.18,0,0,1-5-5.47q0-.15-.43-1.1a7,7,0,0,1-.38-2.54,11.65,11.65,0,0,1,.86-4.13,8.27,8.27,0,0,1,1.15-2,17.37,17.37,0,0,1,1.78-1.94,32.65,32.65,0,0,1,6.72-4.9l.62-.38a2.72,2.72,0,0,1,.43-.22.39.39,0,0,0,.29-.36v0a.58.58,0,0,0-.38-.43,1.85,1.85,0,0,1-.38-.19,2.24,2.24,0,0,0-.5-.19l-.36-.1q-1.54-.38-2.3-.62a4.15,4.15,0,0,1-1.78-1.06,1.45,1.45,0,0,1-.5-.65l-.22-.5a2.93,2.93,0,0,1-.24-1.3,6.18,6.18,0,0,1,.22-1.58,11.54,11.54,0,0,1,.41-1.3,6.54,6.54,0,0,1,2.14-2.11,5.52,5.52,0,0,1,3.1-1,3.42,3.42,0,0,1,1.39.24.23.23,0,0,1,.12,0s.07.06.07.1a.12.12,0,0,1,0,.19,1.42,1.42,0,0,1-.82.62,5.48,5.48,0,0,0-1.94.86,1.71,1.71,0,0,0-.89,1.34l.1.38a3.64,3.64,0,0,0,1.7,1.78,33.71,33.71,0,0,0,3.53,1.78,9.56,9.56,0,0,1,2,1.06,1.44,1.44,0,0,0,.86.38,1.7,1.7,0,0,0,.67-.14l3.36-1.54q2.5-1.2,4.27-1.92a3.92,3.92,0,0,0,.74-.31,7.06,7.06,0,0,1,.65-.31,2.32,2.32,0,0,1,1-.29c.19,0,.29,0,.29.14s.06.22-.1.29a10.63,10.63,0,0,1-1.15.6l-1.06.5a15.42,15.42,0,0,0-1.78.79l-1.78.89q-2.11,1.06-3.12,1.49l-.38.17a2.71,2.71,0,0,0-.43.22.25.25,0,0,0-.22.22.25.25,0,0,0,.12.26,18.74,18.74,0,0,1,1.44,1.25,14.78,14.78,0,0,0,1.25,1.15,6.55,6.55,0,0,1,1.92,2.78l.36.82.31.72a19.28,19.28,0,0,1,1.1,4.94,3.63,3.63,0,0,1,0,.67,2.74,2.74,0,0,1-.19,1.1,6.56,6.56,0,0,0-.19.77,14.15,14.15,0,0,1-6.1,9,11.48,11.48,0,0,1-5,2q-.39,0-1,.17A5.64,5.64,0,0,1,275.7,62.16Zm8.54-12a13,13,0,0,0-.58-3.84q-.19-.63-1.1-3a3.81,3.81,0,0,0-.67-1.1L280.6,41a13.83,13.83,0,0,0-2.21-1.85,1.23,1.23,0,0,0-.82-.34,1.44,1.44,0,0,0-.77.29,50.46,50.46,0,0,0-5.14,3.46l-1.34,1a13.14,13.14,0,0,0-1.68,1.54,10.82,10.82,0,0,0-1.49,2.28,9,9,0,0,0-1.06,4,7.62,7.62,0,0,0,.48,2.62A20,20,0,0,0,268,57a6,6,0,0,0,2.57,2.35,7.79,7.79,0,0,0,3.48.82,6.65,6.65,0,0,0,1.39-.14,7.89,7.89,0,0,0,4.18-2,18.28,18.28,0,0,0,3.17-3.5A7.67,7.67,0,0,0,284.25,50.21Z"/><path d="M304.74,29.71A8.2,8.2,0,0,1,303.69,32a6.51,6.51,0,0,1-1.78,1.56,1.23,1.23,0,0,1-.46.22.26.26,0,0,0-.22.12,1.47,1.47,0,0,0-.1.29,14.61,14.61,0,0,1-1.2,3.22,7,7,0,0,1-2,2.45,4.61,4.61,0,0,1-2.69.91,4.33,4.33,0,0,1-1.61-.34,4,4,0,0,1-1.37-.86l-.19-.19a16.11,16.11,0,0,1-1.75-2.71,5.76,5.76,0,0,1-.6-2.57,17.23,17.23,0,0,1,.67-4.75,14.22,14.22,0,0,1,2-4.22,4,4,0,0,1,1.9-1.44,7.11,7.11,0,0,1,2.62-.48,3.68,3.68,0,0,1,3.22,1.68,8.61,8.61,0,0,1,1.1,3.79q.1.82.1,3v.91q.1.43.43.43l.19,0a1.47,1.47,0,0,0,.82-.38,5.71,5.71,0,0,0,1.44-1.87,1.73,1.73,0,0,0,.24-.46l.1-.26Zm-7.68-5.86a.83.83,0,0,0-.67.29q-.14.24-.84,1.3a9.73,9.73,0,0,0-1.08,2.16,12.83,12.83,0,0,0-.67,4.75A7.55,7.55,0,0,0,294,33.6l.19,1.3a6.08,6.08,0,0,0,1.2,2.78,3.15,3.15,0,0,0,1.63,1.15.93.93,0,0,0,1-.34l.43-.62a8.87,8.87,0,0,0,1.3-3.31,2,2,0,0,0,0-.48.6.6,0,0,0-.17-.48,1.9,1.9,0,0,0-.6-.29l-.22-.1-.26-.1a2.63,2.63,0,0,1-1.58-2.3q-.1-1-.1-1.49a7.22,7.22,0,0,1,1.39-4.51q.38-.43-.24-.77A2.46,2.46,0,0,0,297.06,23.86ZM300.13,30a26.31,26.31,0,0,0-.29-3.22,5.39,5.39,0,0,0-.43-1.2.37.37,0,0,0-.26-.17.25.25,0,0,0-.26.12,3.2,3.2,0,0,0-.67,1.2,8.19,8.19,0,0,0-.29,2.16,4.34,4.34,0,0,0,0,.77,5.48,5.48,0,0,0,.38,1.58,2,2,0,0,0,1.15,1.15.33.33,0,0,0,.36,0,.53.53,0,0,0,.22-.31,4.55,4.55,0,0,0,.1-1.06A7.23,7.23,0,0,0,300.13,30Z"/><path d="M325.14,32.64c0-.19.1-.26.22-.22s.15.17.12.36a47.32,47.32,0,0,1-1.25,4.92,29,29,0,0,1-1.68,4.39A10.49,10.49,0,0,1,321,44.54,3.6,3.6,0,0,1,318,46.08a5.92,5.92,0,0,1-5-3.5l-.34-.67a2.27,2.27,0,0,1-.24-.67.79.79,0,0,0-.38-.58.62.62,0,0,0-.65,0,3.7,3.7,0,0,1-.65.22,10.53,10.53,0,0,1-1.73.14q-3.5,0-4.13-2a24.3,24.3,0,0,1-.82-3.1,15.07,15.07,0,0,1-.24-2.71,33.24,33.24,0,0,1,.72-5.9,1.69,1.69,0,0,1,.48-.91,4.85,4.85,0,0,1,1-.74l.82-.46a.53.53,0,0,1,.36-.07l.26,0a.71.71,0,0,1,.34.19.46.46,0,0,1,.14.34v.14a5.1,5.1,0,0,0-.19,1.49q0,.67,0,1.18c0,.34.06.63.1.89l.14,2.16q.14,2,.31,3.38a13.67,13.67,0,0,0,.6,2.66,3.16,3.16,0,0,0,.34.67,1.41,1.41,0,0,0,.91.58q.38,0,.82-.62a7.94,7.94,0,0,0,.82-2.45q.43-1.92.58-2.93.1-.77.19-2.3a3,3,0,0,1,.29-1.25.6.6,0,0,1,.62-.34q.43.1.43.38.1,1.34.1,2l0,1.82q0,.53,0,1.63,0,2.3.24,5.18a8.75,8.75,0,0,0,1.15,3.65,3.06,3.06,0,0,0,2.11,1.54,5.74,5.74,0,0,0,.86.1,2.35,2.35,0,0,0,1.73-.58,13.39,13.39,0,0,0,2-3,19.08,19.08,0,0,0,1.25-3.17l.43-1.34q.19-.53.67-2.26Z"/><path d="M322.65,28.75a91.23,91.23,0,0,1,.79-11.28,40.78,40.78,0,0,1,2.78-10.94q2-4.66,5.3-4.37,3.94.38,3.94,4.94,0,6-6.82,19.3l-1,1.82a4.64,4.64,0,0,0-.67,2.54q0,1.92.29,5.66a4.16,4.16,0,0,0,.24,1q.1.24.36,1.34a10.19,10.19,0,0,0,.94,2.38,2.16,2.16,0,0,0,2,1.27,3.16,3.16,0,0,0,.91-.14,10.7,10.7,0,0,0,1.73-1q.86-.43,2.83-4.51a29.88,29.88,0,0,0,1.39-4.08,11.81,11.81,0,0,0,.38-1.15q.38-1.1.58-1.51c.13-.27.19-.33.19-.17a6.4,6.4,0,0,1-.43,1.78l-.86,2.69a35.45,35.45,0,0,1-1.42,4,12.62,12.62,0,0,1-1.85,3,6.16,6.16,0,0,1-3.6,2.3,4,4,0,0,1-.72.1h-.19a10.29,10.29,0,0,1-1.75-.34,4.94,4.94,0,0,1-1.42-.82,7.35,7.35,0,0,1-2.5-2.76,11.17,11.17,0,0,1-1-3.72q-.19-1.92-.48-5.38a9,9,0,0,1,0-1.1C322.64,29.25,322.65,29,322.65,28.75Zm4.42-3.5.34-.53q1.78-4.94,4.51-12,1.15-2.88,1.49-3.91a6.17,6.17,0,0,0,.34-1.9,10.12,10.12,0,0,0-.14-1.54A2.26,2.26,0,0,0,333,4a1,1,0,0,0-.86-.43,1,1,0,0,0-.62.19,4.52,4.52,0,0,0-1.15,1,15.79,15.79,0,0,0-1.25,4.37q-.77,3.74-1.44,8t-.72,5.11a12.74,12.74,0,0,0-.1,1.3A7.32,7.32,0,0,0,327.06,25.25Z"/><path d="M338.25,39.36a.79.79,0,0,1,.38,0q1.39.39,1.63,1.25a2.12,2.12,0,0,1-.62,1.87l-.43.43-.38.38a1.74,1.74,0,0,1-1,.38,1.33,1.33,0,0,1-.67-.19,1.48,1.48,0,0,1-.86-1.58,2.69,2.69,0,0,1,.1-.62.93.93,0,0,1,.07-.29,1,1,0,0,0,.07-.34c0-.1,0-.24,0-.43a.84.84,0,0,1,.26-.53,2,2,0,0,1,1.15-.34Z"/></svg>