<svg id="Layer_1" data-name="Layer 1" xmlns="http://www.w3.org/2000/svg" viewBox="0 0 223.46 87.5"><title>dadArtboard 10@1x</title><path d="M45.67,12.2l-.19,3.55q0,1.34-.24,3.79t-.34,3.6l-.14,1.68q0,.53-.14,1.37t-.14,2l0,2.88a21.32,21.32,0,0,1-.29,2.88,30,30,0,0,0-.38,3.89v1.87a9.14,9.14,0,0,0,.38,3c0,.1.09.35.17.77a4.23,4.23,0,0,0,.36,1.1,2.11,2.11,0,0,0,.46.55.86.86,0,0,0,.55.17H46a7.1,7.1,0,0,0,3.65-1.49,15.46,15.46,0,0,0,4.46-5.09A27.43,27.43,0,0,0,56.33,34s0-.08.1-.14.11-.16.24-.1a.19.19,0,0,1,.1.19,5.22,5.22,0,0,1-.43,1.25,36.07,36.07,0,0,1-3.89,7.06,9.86,9.86,0,0,1-4.32,3.6A6.39,6.39,0,0,1,43,45.78a6.19,6.19,0,0,1-2.21-1.7,8.59,8.59,0,0,1-1.58-3.41,37.66,37.66,0,0,1-.67-4.75q-.14-2.26-.14-4.42V29.72a21.11,21.11,0,0,1,.14-2.59l.34-2.3q.19-1.39.38-4.37a35.25,35.25,0,0,1,.58-4l1.44-8.5c0-.19.08-.5.14-.94a7.9,7.9,0,0,0,.1-1.13,1.05,1.05,0,0,0-.53-1,1.7,1.7,0,0,0-.67-.14,1.33,1.33,0,0,0-.82.29A8.73,8.73,0,0,0,37.7,7a21,21,0,0,0-1.39,2.26q-.67,1.25-.91,1.63a57.25,57.25,0,0,0-3.07,6.58q-1.15,2.74-1.78,4.51a23.55,23.55,0,0,0-1.39,6.38q-.1,1.63-.38,4.42-.29,2.45-.43,4.94a3.85,3.85,0,0,1-.24,1c-.13.34-.21.55-.24.65a3.53,3.53,0,0,1-.36.77,1.15,1.15,0,0,1-.5.38,2.72,2.72,0,0,1-.86.14,2.77,2.77,0,0,1-1.06-.24,2,2,0,0,1-.72-.53,6.28,6.28,0,0,1-.62-.91A5.77,5.77,0,0,1,23,35.53l0-1.54a4.1,4.1,0,0,1,0-1c0-.37.09-.66.12-.89q.1-1.34.1-1.92V28.67a20.72,20.72,0,0,1,.1-2.35,5.81,5.81,0,0,0,0-.86,13.23,13.23,0,0,0-.1-1.39l0-1.34q0-.72.1-2a26.82,26.82,0,0,0,.24-3.84,1.27,1.27,0,0,0,0-.38,4.36,4.36,0,0,1-.14-1.3v-.67a9.27,9.27,0,0,0-.72-3.6,5.42,5.42,0,0,0-.86-1.34,2.14,2.14,0,0,0-1.63-.82,2.36,2.36,0,0,0-1.49.58,8,8,0,0,0-1.82,2.26,27.66,27.66,0,0,0-1.49,3.55l-.67,1.63a7.82,7.82,0,0,0-.58,2.88L13.9,24.2l-.24,3.74-.19,3.55q-.1,1.06-.19,1.54a1.42,1.42,0,0,1-.58.91A17.78,17.78,0,0,1,9.29,36.3a4.19,4.19,0,0,1-1.39.48l-.38,0a1.88,1.88,0,0,1-1.78-1.25,8.78,8.78,0,0,1-.48-2.16c0-.38,0-.94,0-1.68a28.19,28.19,0,0,1,.19-3.46l.14-1a10.36,10.36,0,0,0,.14-2,25.28,25.28,0,0,1,.14-4.08q.24-2.11.29-2.45l.19-2a7.15,7.15,0,0,1,.24-1.27l.29-1,0-.29a1.45,1.45,0,0,1,1.25-1.34,5.1,5.1,0,0,1,1.39-.24,2.91,2.91,0,0,1,.62,0l1,.1a4.4,4.4,0,0,1,1.61.48,4.94,4.94,0,0,1,.91.53c.13.06.22,0,.29,0l.62-.91,1.58-2.3a10.33,10.33,0,0,1,4.08-3.36,5.08,5.08,0,0,1,2.21-.48,5.91,5.91,0,0,1,2.33.48,5.74,5.74,0,0,1,1.94,1.34,3.59,3.59,0,0,1,.55.74q.26.46.36.6A15.85,15.85,0,0,1,29.4,16a18.85,18.85,0,0,1,.14,2.69,1.62,1.62,0,0,0,.29.91q.19.19.24,0a7.51,7.51,0,0,0,.58-1.34,51.75,51.75,0,0,1,2.3-5.9A30,30,0,0,1,35.3,7.88,19.14,19.14,0,0,1,38,4.47,5.39,5.39,0,0,1,41.54,3a3.34,3.34,0,0,1,2.09.72A3.56,3.56,0,0,1,44.9,5.58a17.79,17.79,0,0,1,.62,3.65Q45.58,9.61,45.67,12.2Z"/><path d="M66.5,48.39l1.1-1a50.61,50.61,0,0,0,4.06-3.94,16.32,16.32,0,0,0,2.81-4.22c.1-.42.2-.79.31-1.13l.31-.94.58-1.82q0-.24.1-.82a2.1,2.1,0,0,1,.34-1,2.57,2.57,0,0,1,0,.58A4.45,4.45,0,0,1,76,35.24a7.69,7.69,0,0,0-.22,1,15.34,15.34,0,0,1-1.3,3.94,15.84,15.84,0,0,1-2.21,3.17q-1.39,1.58-4.66,4.85a14.1,14.1,0,0,1-1.34,1.2,2,2,0,0,0-.77,1.78V57.8q0,2.4-.34,5.76L65,66q-.24,2.16-.24,2.69a15.24,15.24,0,0,1-.19,2.4Q64.34,72.3,64,74q-.1.38-.34,1.58a7.54,7.54,0,0,1-.77,2.16q-.19.34-.41.82c-.14.32-.25.56-.31.72q-.43,1-.79,1.66a6.45,6.45,0,0,1-.89,1.22,6.62,6.62,0,0,1-4.9,2.26,15.42,15.42,0,0,1-6.29-1.54l-.89-.41a3.9,3.9,0,0,1-1.18-.79,5.39,5.39,0,0,1-1.78-3.31,14,14,0,0,1-.14-2,8.85,8.85,0,0,1,0-1.1,10.17,10.17,0,0,1,.77-2.83A9.43,9.43,0,0,0,46.73,71c.19-.58.34-1,.43-1.25a9.73,9.73,0,0,1,1.3-2.21l.72-.86q.14-.14,1.34-1.78l1.34-1.78a26.3,26.3,0,0,1,2.45-2.83,41.29,41.29,0,0,0,3.55-4,9.7,9.7,0,0,1,.94-1q.6-.58.94-.86l1.54-1.54A3,3,0,0,0,62,51l.19-2.59a28.94,28.94,0,0,0,.24-3.89c0-.06,0-.53.14-1.39a1.89,1.89,0,0,0-.1-1.06.37.37,0,0,0-.38-.24h-.48q-1.34.1-1.87.1a8.37,8.37,0,0,1-3.29-.5,3.34,3.34,0,0,1-1.58-1.27A9.08,9.08,0,0,1,54,38.07a8.92,8.92,0,0,1-.38-2.54l0-1.15A28.44,28.44,0,0,1,54,29.91l.14-.62a3.17,3.17,0,0,1,.17-.91c.08-.19.14-.34.17-.43l0-.1.55-.79c.24-.34.42-.49.55-.46a3.72,3.72,0,0,1,1.46.41,3.18,3.18,0,0,1,1.46,1.56,1.69,1.69,0,0,1,.14.82l0,1.2,0,5.81a15.57,15.57,0,0,0,.19,2,7.52,7.52,0,0,0,.38,1.2A1.94,1.94,0,0,0,61,41a2.72,2.72,0,0,0,.86-.14c.32-.13.48-.3.48-.53v-.67a18.36,18.36,0,0,1,.34-3.79l.14-1.15a2.92,2.92,0,0,1,.29-1.06,4.92,4.92,0,0,0,.34-1,.63.63,0,0,1,.36-.41,1.36,1.36,0,0,1,.65-.17.55.55,0,0,1,.38.1,1.28,1.28,0,0,1,.58,1.06q0,1.49.1,4.37v-.53q.1,0,.1,6.77l0,2.54v2.45a.32.32,0,0,0,.29,0,.68.68,0,0,0,.29-.22l.14-.17Zm-4.66,5.23a.76.76,0,0,0-.5.14l-.22.19a6.41,6.41,0,0,0-.94.94c-.3.37-.5.62-.6.74l-1.15,1.2A54,54,0,0,0,54.74,61q-1.54,2-4.85,6a18.77,18.77,0,0,0-2.74,4.8A14.21,14.21,0,0,0,46,77.05a8.18,8.18,0,0,0,.1,1.1,4.64,4.64,0,0,0,1.68,2.52A10.41,10.41,0,0,0,50.9,82.5,6.92,6.92,0,0,0,54,83a4.29,4.29,0,0,0,1.87-.84,6.69,6.69,0,0,0,1.63-1.56,7.86,7.86,0,0,0,1.34-2.88q.86-3.27,1.25-4.94c0-.19.06-.44.1-.74a3.52,3.52,0,0,1,.14-.74A10.13,10.13,0,0,0,60.74,69q.1-1.2.1-1.44.14-1.15.34-3.55l.29-3.46q.1-1.15.19-3.26A32.7,32.7,0,0,1,61.85,53.63Z"/><path d="M121.27,5.48c.1,0,.1.12,0,.26a1.2,1.2,0,0,1-.5.38,2,2,0,0,1-.84.17,3.37,3.37,0,0,0-1.3.34,6,6,0,0,1-2.21.48l-4.66.29-.67.1c-.38,0-.58.19-.58.48l0,.24a12,12,0,0,1,.24,2.45V12.2q0,.86,0,1.39a27,27,0,0,0,.14,3.6q.1.67.14,1.44c0,.51,0,.88,0,1.1q.1,1.87.1,5.57,0,4.46,0,6.72,0,1.25-.24,2.76t-.24,2a5.74,5.74,0,0,1-.34,1.44q-.86,2.11-1.63,3.65a10.62,10.62,0,0,1-3.22,3.65,4.93,4.93,0,0,1-1.68.86,4.85,4.85,0,0,1-.53.12,1.26,1.26,0,0,0-.67.36.74.74,0,0,1-.53.14,15.76,15.76,0,0,1-3.36.34,15.35,15.35,0,0,1-5.42-1,8.91,8.91,0,0,1-5.62-5.71A13.37,13.37,0,0,1,87,36.11,11.75,11.75,0,0,1,87.38,33a11.19,11.19,0,0,1,5.86-7.25,12.55,12.55,0,0,1,6.1-1.63,10.72,10.72,0,0,1,1.78.14l3.7.53.62.14a.74.74,0,0,0,.5,0,.56.56,0,0,0,.12-.43v-.53q0-1.34-.1-3.84a2.13,2.13,0,0,1,0-.31,1,1,0,0,0,0-.36,12.18,12.18,0,0,1-.24-2.28q0-1.46,0-1.85V14q0-.53,0-1.22t-.1-1.08c0-.1,0-.27,0-.53a1.75,1.75,0,0,1,.07-.67,1.58,1.58,0,0,0,.1-.48,1.72,1.72,0,0,1,0-.58,4.2,4.2,0,0,0,0-.58,1.81,1.81,0,0,0-.19-.82L105,8a5.08,5.08,0,0,0-.74,0,2.61,2.61,0,0,0-1.25.34,1.56,1.56,0,0,1-.77.14A11.93,11.93,0,0,1,99.1,8a3,3,0,0,1-1.61-.79,6.49,6.49,0,0,0-.7-.65c-.13,0-.14-.14,0-.31a.76.76,0,0,1,.38-.36q.24-.1.89-.43a3.37,3.37,0,0,1,1.32-.38l2.26-.1,2.78-.1q1.68,0,3.89,0,.62,0,1.87-.1A35.5,35.5,0,0,1,114,4.57a4.79,4.79,0,0,0,1.06,0,9.49,9.49,0,0,1,1.06-.07,5.94,5.94,0,0,1,.91.1h.41a.73.73,0,0,1,.41.1,8.11,8.11,0,0,0,2.4.62A8,8,0,0,0,121.27,5.48ZM105.82,32.36a29.55,29.55,0,0,1,.43-3.55,12.12,12.12,0,0,0,.19-1.25,2,2,0,0,0-.48-1.25,4.24,4.24,0,0,0-2.35-1,18.24,18.24,0,0,0-3.89-.41,11.14,11.14,0,0,0-2.69.29,6.31,6.31,0,0,0-2.09,1.13l-1.42,1.08a11.32,11.32,0,0,0-4.08,7.1,15,15,0,0,0-.19,2.26A16.43,16.43,0,0,0,89.45,39a7.19,7.19,0,0,0,2.9,4.8,8.94,8.94,0,0,0,5.93,1.54,6,6,0,0,0,4.7-2,9.69,9.69,0,0,0,2-4,15.1,15.1,0,0,0,.46-3,19.24,19.24,0,0,0,.29-2.69Z"/><path d="M129.82,32.51a8.2,8.2,0,0,1-1.06,2.33A6.51,6.51,0,0,1,127,36.39a1.23,1.23,0,0,1-.46.22.26.26,0,0,0-.22.12,1.47,1.47,0,0,0-.1.29,14.61,14.61,0,0,1-1.2,3.22,7,7,0,0,1-2,2.45,4.61,4.61,0,0,1-2.69.91,4.33,4.33,0,0,1-1.61-.34,4,4,0,0,1-1.37-.86l-.19-.19a16.11,16.11,0,0,1-1.75-2.71,5.76,5.76,0,0,1-.6-2.57,17.23,17.23,0,0,1,.67-4.75,14.22,14.22,0,0,1,2-4.22,4,4,0,0,1,1.9-1.44A7.11,7.11,0,0,1,122,26a3.68,3.68,0,0,1,3.22,1.68,8.61,8.61,0,0,1,1.1,3.79q.1.82.1,3v.91q.1.43.43.43l.19,0a1.47,1.47,0,0,0,.82-.38,5.71,5.71,0,0,0,1.44-1.87,1.73,1.73,0,0,0,.24-.46l.1-.26Zm-7.68-5.86a.83.83,0,0,0-.67.29q-.14.24-.84,1.3a9.73,9.73,0,0,0-1.08,2.16,12.83,12.83,0,0,0-.67,4.75,7.55,7.55,0,0,0,.24,1.25l.19,1.3a6.08,6.08,0,0,0,1.2,2.78,3.15,3.15,0,0,0,1.63,1.15.93.93,0,0,0,1-.34l.43-.62a8.87,8.87,0,0,0,1.3-3.31,2,2,0,0,0,0-.48.6.6,0,0,0-.17-.48,1.9,1.9,0,0,0-.6-.29l-.22-.1-.26-.1a2.63,2.63,0,0,1-1.58-2.3q-.1-1-.1-1.49a7.22,7.22,0,0,1,1.39-4.51q.38-.43-.24-.77A2.46,2.46,0,0,0,122.14,26.65Zm3.07,6.19a26.31,26.31,0,0,0-.29-3.22,5.39,5.39,0,0,0-.43-1.2.37.37,0,0,0-.26-.17.25.25,0,0,0-.26.12,3.2,3.2,0,0,0-.67,1.2,8.19,8.19,0,0,0-.29,2.16,4.34,4.34,0,0,0,0,.77,5.48,5.48,0,0,0,.38,1.58,2,2,0,0,0,1.15,1.15.33.33,0,0,0,.36,0,.53.53,0,0,0,.22-.31,4.55,4.55,0,0,0,.1-1.06A7.23,7.23,0,0,0,125.21,32.84Z"/><path d="M150.22,35.43c0-.19.1-.26.22-.22s.15.17.12.36a47.32,47.32,0,0,1-1.25,4.92,29,29,0,0,1-1.68,4.39A10.49,10.49,0,0,1,146,47.34a3.6,3.6,0,0,1-2.93,1.54,5.92,5.92,0,0,1-5-3.5l-.34-.67a2.27,2.27,0,0,1-.24-.67.79.79,0,0,0-.38-.58.62.62,0,0,0-.65,0,3.7,3.7,0,0,1-.65.22,10.53,10.53,0,0,1-1.73.14q-3.5,0-4.13-2a24.3,24.3,0,0,1-.82-3.1A15.07,15.07,0,0,1,129,36a33.24,33.24,0,0,1,.72-5.9,1.69,1.69,0,0,1,.48-.91,4.85,4.85,0,0,1,1-.74l.82-.46a.53.53,0,0,1,.36-.07l.26,0a.71.71,0,0,1,.34.19.46.46,0,0,1,.14.34v.14a5.1,5.1,0,0,0-.19,1.49q0,.67,0,1.18c0,.34.06.63.1.89l.14,2.16q.14,2,.31,3.38a13.67,13.67,0,0,0,.6,2.66,3.16,3.16,0,0,0,.34.67,1.41,1.41,0,0,0,.91.58q.38,0,.82-.62a7.94,7.94,0,0,0,.82-2.45q.43-1.92.58-2.93.1-.77.19-2.3A3,3,0,0,1,138,32a.6.6,0,0,1,.62-.34q.43.1.43.38.1,1.34.1,2l0,1.82q0,.53,0,1.63,0,2.3.24,5.18a8.75,8.75,0,0,0,1.15,3.65,3.06,3.06,0,0,0,2.11,1.54,5.74,5.74,0,0,0,.86.1,2.35,2.35,0,0,0,1.73-.58,13.39,13.39,0,0,0,2-3,19.08,19.08,0,0,0,1.25-3.17l.43-1.34q.19-.53.67-2.26Z"/><path d="M167.45,35.1a6.85,6.85,0,0,1,.43-1.2s0,0,0,.1l-.14.86a34.69,34.69,0,0,1-4.22,10A10,10,0,0,1,161,47.63a3.71,3.71,0,0,1-2.21.77,3,3,0,0,1-2.4-.91,5.38,5.38,0,0,1-1.78-3.7,3.11,3.11,0,0,1,0-.91,9.54,9.54,0,0,0,.38-2.45q.1-1.06.19-1.58c.06-.32,0-.48-.29-.48l-.14,0a5.66,5.66,0,0,1-.86,0,5.37,5.37,0,0,1-2.35-.53,13.34,13.34,0,0,1-2.3-1.44,5.5,5.5,0,0,1-2-3.36L147.09,32a9.89,9.89,0,0,1-.29-1.87,11.47,11.47,0,0,1,.38-3.84,4.63,4.63,0,0,1,3.17-2.93,3.51,3.51,0,0,1,.91-.14,3.4,3.4,0,0,1,2.26.91,2,2,0,0,1,.72,1.44,7.78,7.78,0,0,1,0,1,7.34,7.34,0,0,1-.14,1.44,15,15,0,0,1-2.64,6,1.44,1.44,0,0,0-.29.77,1.28,1.28,0,0,0,.24.62,2.56,2.56,0,0,0,2.45,1.34,4.6,4.6,0,0,0,1.34-.29q1.73-.58,2.69-.82a.41.41,0,0,1,.48.1,3.12,3.12,0,0,1,.34.72,3.24,3.24,0,0,1,.24,1.15,4.07,4.07,0,0,1-.1.72,3.67,3.67,0,0,0-.1,1V40l-.14,2.3a8.08,8.08,0,0,0,.53,3.55,1.73,1.73,0,0,0,.38.6.85.85,0,0,0,.58.17h.19q2.11-.29,4-3.53A34.56,34.56,0,0,0,167.45,35.1Zm-17.38-7a22.77,22.77,0,0,0,.29,3.55l.24,1.63a.23.23,0,0,0,0,.12s.06.07.1.07q.29,0,.34-.14a22.14,22.14,0,0,0,2.26-5.52,8.64,8.64,0,0,0,.14-1.49,4.14,4.14,0,0,0-.19-1.06,1.27,1.27,0,0,0-.46-.55,1.19,1.19,0,0,0-.7-.22h-.19a2.49,2.49,0,0,0-1.3.79,2.23,2.23,0,0,0-.58,1.37Z"/><path d="M170.33,28.52a.83.83,0,0,0,.5-.41,1.46,1.46,0,0,1,.17-.31,37.23,37.23,0,0,1,3.07-4.27,9.49,9.49,0,0,1,2.4-2.11,4,4,0,0,1,2.21-.62,1.45,1.45,0,0,1,1.3.86,10.53,10.53,0,0,1,.34,1.25c0,.29,0,.74,0,1.34a22.58,22.58,0,0,1-.14,2.5q-.67,4.7-1.25,7.06a20.58,20.58,0,0,0-.34,2.74q0,.29,0,.72a9.57,9.57,0,0,1-.12,1,18.24,18.24,0,0,0-.14,2.26v1q0,.34,0,.82a9.86,9.86,0,0,1,0,1.15,2.84,2.84,0,0,0,.34,1.58l.46.1a1.87,1.87,0,0,0,.41,0,.8.8,0,0,0,.53-.29,10.23,10.23,0,0,0,1-1.1l.58-.77.67-.91a27.57,27.57,0,0,0,2.3-5q.86-2.49.86-1.82a14.89,14.89,0,0,1-1.37,4,23.93,23.93,0,0,1-2.38,4.49,10,10,0,0,1-1.82,2,2.85,2.85,0,0,1-1,.58,2.21,2.21,0,0,1-.91.19,2.45,2.45,0,0,1-1.68-.86,5.64,5.64,0,0,1-1-1.73,7.07,7.07,0,0,0-.53-1.15q-.1-1.44-.1-2.06a21.37,21.37,0,0,1,.29-2.9q.24-1.42.72-3.67.1-.53.53-2.11a17.25,17.25,0,0,0,.77-3.5,11.54,11.54,0,0,0,.58-2.11,18.14,18.14,0,0,1,.53-1.92q.19-.53.48-1.58a1.71,1.71,0,0,0,0-.48.43.43,0,0,0-.12-.31.37.37,0,0,0-.26-.12l-.14,0a2.65,2.65,0,0,0-.72.34,8.8,8.8,0,0,0-1.58,1.44,47.68,47.68,0,0,0-4.7,6.58,3.12,3.12,0,0,0-.48,1.58,8.94,8.94,0,0,0,0,1.06c0,.19,0,.42,0,.67a6.16,6.16,0,0,1,0,.91q-.1,1.73-.22,2.69a8.49,8.49,0,0,1-.5,2,1.3,1.3,0,0,1-1.1.86l-.38.1a1.28,1.28,0,0,1-.58.14,2.22,2.22,0,0,1-1.1-.43,2.26,2.26,0,0,1-.6-.53,1,1,0,0,1-.17-.58,2,2,0,0,1,0-.48,19.18,19.18,0,0,0,.43-3q.1-1.51.1-3.77,0-1.73-.1-5.28V25.4a1.77,1.77,0,0,1,.55-1.13,1.9,1.9,0,0,1,1.18-.46,1,1,0,0,1,1.15,1q.24,1.63.29,1.78a1,1,0,0,0,.19.62,1.89,1.89,0,0,1,.31.67A6.5,6.5,0,0,0,170.33,28.52Z"/><path d="M199.08,35q.43-1,.53-1s0,0,0,.1a2.91,2.91,0,0,1-.34,1.06,20.16,20.16,0,0,1-4.66,8.35,6.94,6.94,0,0,1-2,1.54l-.19.12-.24.17a6.34,6.34,0,0,1-3.7,1.3,4.6,4.6,0,0,1-3.17-1.2,5.59,5.59,0,0,1-1.73-3.26,25.79,25.79,0,0,1-.34-2.9q-.14-1.94-.14-3.43a11.13,11.13,0,0,1,0-1.3q.38-3.17.67-4.54a7.54,7.54,0,0,1,1.32-2.81,7,7,0,0,1,3.19-2.3,6.47,6.47,0,0,1,2.4-.58q2,0,2.69,2.54a2.7,2.7,0,0,1,.1.82,5.94,5.94,0,0,1-.91,2.74,16.35,16.35,0,0,1-2.4,3,5,5,0,0,1-2.4,1.39,1,1,0,0,0-.67.72,11.09,11.09,0,0,0-.24,2.16,12.69,12.69,0,0,0,1.2,5.18,2.93,2.93,0,0,0,2.74,2.06,3.61,3.61,0,0,0,1.8-.5,6.26,6.26,0,0,0,1.61-1.32,28.07,28.07,0,0,0,2.64-3.31,21.15,21.15,0,0,0,1.49-3.22Q199,35.15,199.08,35Zm-6.62-8.06a.37.37,0,0,0-.07-.34.44.44,0,0,0-.36-.14h-.1a2,2,0,0,0-1,.53q-.29.34-.77,1a18.37,18.37,0,0,0-2.06,4.27c0,.1-.1.26-.19.48a1.59,1.59,0,0,0-.14.62v.19a1,1,0,0,0,.5,0,1.15,1.15,0,0,0,.43-.29,2.59,2.59,0,0,1,.36-.31l.43-.43a15.25,15.25,0,0,0,2.4-3.46l.38-.67Z"/><path d="M210.74,48.39l1.1-1a50.61,50.61,0,0,0,4.06-3.94,16.32,16.32,0,0,0,2.81-4.22c.1-.42.2-.79.31-1.13l.31-.94.58-1.82q0-.24.1-.82a2.1,2.1,0,0,1,.34-1,2.57,2.57,0,0,1,0,.58,4.45,4.45,0,0,1-.17,1.15,7.69,7.69,0,0,0-.22,1,15.34,15.34,0,0,1-1.3,3.94,15.84,15.84,0,0,1-2.21,3.17q-1.39,1.58-4.66,4.85a14.1,14.1,0,0,1-1.34,1.2,2,2,0,0,0-.77,1.78V57.8q0,2.4-.34,5.76L209.21,66Q209,68.17,209,68.7a15.24,15.24,0,0,1-.19,2.4q-.19,1.2-.58,2.88-.1.38-.34,1.58a7.54,7.54,0,0,1-.77,2.16q-.19.34-.41.82c-.14.32-.25.56-.31.72q-.43,1-.79,1.66a6.45,6.45,0,0,1-.89,1.22,6.62,6.62,0,0,1-4.9,2.26,15.42,15.42,0,0,1-6.29-1.54l-.89-.41a3.9,3.9,0,0,1-1.18-.79,5.39,5.39,0,0,1-1.78-3.31,14,14,0,0,1-.14-2,8.85,8.85,0,0,1,0-1.1,10.17,10.17,0,0,1,.77-2.83A9.43,9.43,0,0,0,191,71c.19-.58.34-1,.43-1.25a9.73,9.73,0,0,1,1.3-2.21l.72-.86q.14-.14,1.34-1.78l1.34-1.78a26.3,26.3,0,0,1,2.45-2.83,41.29,41.29,0,0,0,3.55-4,9.7,9.7,0,0,1,.94-1q.6-.58.94-.86l1.54-1.54a3,3,0,0,0,.72-1.78l.19-2.59a28.94,28.94,0,0,0,.24-3.89c0-.06,0-.53.14-1.39a1.89,1.89,0,0,0-.1-1.06.37.37,0,0,0-.38-.24h-.48q-1.34.1-1.87.1a8.37,8.37,0,0,1-3.29-.5,3.34,3.34,0,0,1-1.58-1.27,9.08,9.08,0,0,1-.84-2.11,8.92,8.92,0,0,1-.38-2.54l0-1.15a28.44,28.44,0,0,1,.38-4.46l.14-.62a3.17,3.17,0,0,1,.17-.91c.08-.19.14-.34.17-.43l0-.1.55-.79c.24-.34.42-.49.55-.46a3.72,3.72,0,0,1,1.46.41,3.18,3.18,0,0,1,1.46,1.56,1.69,1.69,0,0,1,.14.82l0,1.2,0,5.81a15.57,15.57,0,0,0,.19,2,7.52,7.52,0,0,0,.38,1.2A1.94,1.94,0,0,0,205.27,41a2.72,2.72,0,0,0,.86-.14c.32-.13.48-.3.48-.53v-.67a18.36,18.36,0,0,1,.34-3.79l.14-1.15a2.92,2.92,0,0,1,.29-1.06,4.92,4.92,0,0,0,.34-1,.63.63,0,0,1,.36-.41,1.36,1.36,0,0,1,.65-.17.55.55,0,0,1,.38.1,1.28,1.28,0,0,1,.58,1.06q0,1.49.1,4.37v-.53q.1,0,.1,6.77l0,2.54v2.45a.32.32,0,0,0,.29,0,.68.68,0,0,0,.29-.22l.14-.17Zm-4.66,5.23a.76.76,0,0,0-.5.14l-.22.19a6.41,6.41,0,0,0-.94.94c-.3.37-.5.62-.6.74l-1.15,1.2A54,54,0,0,0,199,61q-1.54,2-4.85,6a18.77,18.77,0,0,0-2.74,4.8,14.21,14.21,0,0,0-1.2,5.33,8.18,8.18,0,0,0,.1,1.1A4.64,4.64,0,0,0,192,80.67a10.41,10.41,0,0,0,3.17,1.82,6.92,6.92,0,0,0,3.07.5,4.29,4.29,0,0,0,1.87-.84,6.69,6.69,0,0,0,1.63-1.56,7.86,7.86,0,0,0,1.34-2.88q.86-3.27,1.25-4.94c0-.19.06-.44.1-.74a3.52,3.52,0,0,1,.14-.74A10.13,10.13,0,0,0,205,69q.1-1.2.1-1.44.14-1.15.34-3.55l.29-3.46q.1-1.15.19-3.26A32.7,32.7,0,0,1,206.08,53.63Z"/></svg>