<svg id="Layer_1" data-name="Layer 1" xmlns="http://www.w3.org/2000/svg" viewBox="0 0 229.26 87"><title>dadArtboard 8@1x</title><path d="M41.85,12.94l-.19,3.55q0,1.34-.24,3.79t-.34,3.6l-.14,1.68q0,.53-.14,1.37t-.14,2l0,2.88a21.32,21.32,0,0,1-.29,2.88,30,30,0,0,0-.38,3.89v1.87a9.14,9.14,0,0,0,.38,3c0,.1.09.35.17.77a4.23,4.23,0,0,0,.36,1.1,2.11,2.11,0,0,0,.46.55.86.86,0,0,0,.55.17h.34a7.1,7.1,0,0,0,3.65-1.49,15.46,15.46,0,0,0,4.46-5.09,27.43,27.43,0,0,0,2.21-4.7s0-.08.1-.14.11-.16.24-.1a.19.19,0,0,1,.1.19A5.22,5.22,0,0,1,52.51,36,36.07,36.07,0,0,1,48.62,43a9.86,9.86,0,0,1-4.32,3.6,6.39,6.39,0,0,1-5.14-.12A6.19,6.19,0,0,1,37,44.81a8.59,8.59,0,0,1-1.58-3.41,37.66,37.66,0,0,1-.67-4.75q-.14-2.26-.14-4.42V30.46a21.11,21.11,0,0,1,.14-2.59l.34-2.3q.19-1.39.38-4.37a35.25,35.25,0,0,1,.58-4l1.44-8.5c0-.19.08-.5.14-.94a7.9,7.9,0,0,0,.1-1.13,1.05,1.05,0,0,0-.53-1,1.7,1.7,0,0,0-.67-.14,1.33,1.33,0,0,0-.82.29,8.73,8.73,0,0,0-1.78,2A21,21,0,0,0,32.49,10q-.67,1.25-.91,1.63a57.25,57.25,0,0,0-3.07,6.58q-1.15,2.74-1.78,4.51a23.55,23.55,0,0,0-1.39,6.38q-.1,1.63-.38,4.42-.29,2.45-.43,4.94a3.85,3.85,0,0,1-.24,1c-.13.34-.21.55-.24.65a3.53,3.53,0,0,1-.36.77,1.15,1.15,0,0,1-.5.38,2.72,2.72,0,0,1-.86.14,2.77,2.77,0,0,1-1.06-.24,2,2,0,0,1-.72-.53,6.28,6.28,0,0,1-.62-.91,5.77,5.77,0,0,1-.72-3.41l0-1.54a4.1,4.1,0,0,1,0-1c0-.37.09-.66.12-.89q.1-1.34.1-1.92V29.4a20.72,20.72,0,0,1,.1-2.35,5.81,5.81,0,0,0,0-.86,13.23,13.23,0,0,0-.1-1.39l0-1.34q0-.72.1-2a26.82,26.82,0,0,0,.24-3.84,1.27,1.27,0,0,0,0-.38,4.36,4.36,0,0,1-.14-1.3v-.67a9.27,9.27,0,0,0-.72-3.6A5.42,5.42,0,0,0,18,10.35a2.14,2.14,0,0,0-1.63-.82,2.36,2.36,0,0,0-1.49.58,8,8,0,0,0-1.82,2.26,27.66,27.66,0,0,0-1.49,3.55l-.67,1.63a7.82,7.82,0,0,0-.58,2.88l-.29,4.51-.24,3.74-.19,3.55q-.1,1.06-.19,1.54a1.42,1.42,0,0,1-.58.91A17.78,17.78,0,0,1,5.47,37a4.19,4.19,0,0,1-1.39.48l-.38,0a1.88,1.88,0,0,1-1.78-1.25,8.78,8.78,0,0,1-.48-2.16c0-.38,0-.94,0-1.68A28.19,28.19,0,0,1,1.58,29l.14-1a10.36,10.36,0,0,0,.14-2A25.28,25.28,0,0,1,2,21.92q.24-2.11.29-2.45l.19-2a7.15,7.15,0,0,1,.24-1.27l.29-1,0-.29a1.45,1.45,0,0,1,1.25-1.34,5.1,5.1,0,0,1,1.39-.24,2.91,2.91,0,0,1,.62,0l1,.1A4.4,4.4,0,0,1,9,13.95a4.94,4.94,0,0,1,.91.53c.13.06.22,0,.29,0l.62-.91,1.58-2.3a10.33,10.33,0,0,1,4.08-3.36,5.08,5.08,0,0,1,2.21-.48A5.91,5.91,0,0,1,21,7.85,5.74,5.74,0,0,1,22.94,9.2a3.59,3.59,0,0,1,.55.74q.26.46.36.6a15.85,15.85,0,0,1,1.73,6.19,18.85,18.85,0,0,1,.14,2.69,1.62,1.62,0,0,0,.29.91q.19.19.24,0A7.51,7.51,0,0,0,26.83,19a51.75,51.75,0,0,1,2.3-5.9,30,30,0,0,1,2.35-4.46,19.14,19.14,0,0,1,2.69-3.41,5.39,5.39,0,0,1,3.55-1.44,3.34,3.34,0,0,1,2.09.72,3.56,3.56,0,0,1,1.27,1.82A17.79,17.79,0,0,1,41.71,10Q41.75,10.35,41.85,12.94Z"/><path d="M62.68,49.13l1.1-1a50.61,50.61,0,0,0,4.06-3.94A16.32,16.32,0,0,0,70.65,40c.1-.42.2-.79.31-1.13l.31-.94.58-1.82q0-.24.1-.82a2.1,2.1,0,0,1,.34-1,2.57,2.57,0,0,1,0,.58A4.45,4.45,0,0,1,72.16,36a7.69,7.69,0,0,0-.22,1,15.34,15.34,0,0,1-1.3,3.94,15.84,15.84,0,0,1-2.21,3.17q-1.39,1.58-4.66,4.85a14.1,14.1,0,0,1-1.34,1.2,2,2,0,0,0-.77,1.78v6.62q0,2.4-.34,5.76l-.19,2.45q-.24,2.16-.24,2.69a15.24,15.24,0,0,1-.19,2.4q-.19,1.2-.58,2.88-.1.38-.34,1.58A7.54,7.54,0,0,1,59,78.46q-.19.34-.41.82c-.14.32-.25.56-.31.72q-.43,1-.79,1.66a6.45,6.45,0,0,1-.89,1.22,6.62,6.62,0,0,1-4.9,2.26,15.42,15.42,0,0,1-6.29-1.54l-.89-.41a3.9,3.9,0,0,1-1.18-.79,5.39,5.39,0,0,1-1.78-3.31,14,14,0,0,1-.14-2,8.85,8.85,0,0,1,0-1.1,10.17,10.17,0,0,1,.77-2.83,9.43,9.43,0,0,0,.62-1.49c.19-.58.34-1,.43-1.25a9.73,9.73,0,0,1,1.3-2.21l.72-.86q.14-.14,1.34-1.78L48,63.82A26.3,26.3,0,0,1,50.49,61,41.29,41.29,0,0,0,54,57a9.7,9.7,0,0,1,.94-1q.6-.58.94-.86l1.54-1.54a3,3,0,0,0,.72-1.78l.19-2.59a28.94,28.94,0,0,0,.24-3.89c0-.06,0-.53.14-1.39a1.89,1.89,0,0,0-.1-1.06.37.37,0,0,0-.38-.24h-.48q-1.34.1-1.87.1a8.37,8.37,0,0,1-3.29-.5A3.34,3.34,0,0,1,51,40.92a9.08,9.08,0,0,1-.84-2.11,8.92,8.92,0,0,1-.38-2.54l0-1.15a28.44,28.44,0,0,1,.38-4.46L50.3,30a3.17,3.17,0,0,1,.17-.91c.08-.19.14-.34.17-.43l0-.1.55-.79c.24-.34.42-.49.55-.46a3.72,3.72,0,0,1,1.46.41,3.18,3.18,0,0,1,1.46,1.56,1.69,1.69,0,0,1,.14.82l0,1.2,0,5.81a15.57,15.57,0,0,0,.19,2,7.52,7.52,0,0,0,.38,1.2,1.94,1.94,0,0,0,1.87,1.34,2.72,2.72,0,0,0,.86-.14c.32-.13.48-.3.48-.53v-.67a18.36,18.36,0,0,1,.34-3.79L59,35.4a2.92,2.92,0,0,1,.29-1.06,4.92,4.92,0,0,0,.34-1A.63.63,0,0,1,60,33a1.36,1.36,0,0,1,.65-.17.55.55,0,0,1,.38.1A1.28,1.28,0,0,1,61.63,34q0,1.49.1,4.37V37.8q.1,0,.1,6.77l0,2.54v2.45a.32.32,0,0,0,.29,0,.68.68,0,0,0,.29-.22l.14-.17ZM58,54.36a.76.76,0,0,0-.5.14l-.22.19a6.41,6.41,0,0,0-.94.94c-.3.37-.5.62-.6.74l-1.15,1.2a54,54,0,0,0-3.7,4.13q-1.54,2-4.85,6a18.77,18.77,0,0,0-2.74,4.8,14.21,14.21,0,0,0-1.2,5.33,8.18,8.18,0,0,0,.1,1.1,4.64,4.64,0,0,0,1.68,2.52,10.41,10.41,0,0,0,3.17,1.82,6.92,6.92,0,0,0,3.07.5A4.29,4.29,0,0,0,52,82.9a6.69,6.69,0,0,0,1.63-1.56A7.86,7.86,0,0,0,55,78.46q.86-3.27,1.25-4.94c0-.19.06-.44.1-.74a3.52,3.52,0,0,1,.14-.74,10.13,10.13,0,0,0,.43-2.26q.1-1.2.1-1.44.14-1.15.34-3.55l.29-3.46q.1-1.15.19-3.26A32.7,32.7,0,0,1,58,54.36Z"/><path d="M120.28,12.94l-.19,3.55q0,1.34-.24,3.79t-.34,3.6l-.14,1.68q0,.53-.14,1.37t-.14,2l0,2.88a21.32,21.32,0,0,1-.29,2.88,30,30,0,0,0-.38,3.89v1.87a9.14,9.14,0,0,0,.38,3c0,.1.09.35.17.77a4.23,4.23,0,0,0,.36,1.1,2.11,2.11,0,0,0,.46.55.86.86,0,0,0,.55.17h.34a7.1,7.1,0,0,0,3.65-1.49,15.46,15.46,0,0,0,4.46-5.09,27.43,27.43,0,0,0,2.21-4.7s0-.08.1-.14.11-.16.24-.1a.19.19,0,0,1,.1.19,5.22,5.22,0,0,1-.43,1.25A36.07,36.07,0,0,1,127.05,43a9.86,9.86,0,0,1-4.32,3.6,6.39,6.39,0,0,1-5.14-.12,6.19,6.19,0,0,1-2.21-1.7,8.59,8.59,0,0,1-1.58-3.41,37.66,37.66,0,0,1-.67-4.75Q113,34.4,113,32.24V30.46a21.11,21.11,0,0,1,.14-2.59l.34-2.3q.19-1.39.38-4.37a35.25,35.25,0,0,1,.58-4l1.44-8.5c0-.19.08-.5.14-.94a7.9,7.9,0,0,0,.1-1.13,1.05,1.05,0,0,0-.53-1,1.7,1.7,0,0,0-.67-.14,1.33,1.33,0,0,0-.82.29,8.73,8.73,0,0,0-1.78,2A21,21,0,0,0,110.92,10q-.67,1.25-.91,1.63a57.25,57.25,0,0,0-3.07,6.58q-1.15,2.74-1.78,4.51a23.55,23.55,0,0,0-1.39,6.38q-.1,1.63-.38,4.42-.29,2.45-.43,4.94a3.85,3.85,0,0,1-.24,1c-.13.34-.21.55-.24.65a3.53,3.53,0,0,1-.36.77,1.15,1.15,0,0,1-.5.38,2.72,2.72,0,0,1-.86.14,2.77,2.77,0,0,1-1.06-.24,2,2,0,0,1-.72-.53,6.28,6.28,0,0,1-.62-.91,5.77,5.77,0,0,1-.72-3.41l0-1.54a4.1,4.1,0,0,1,0-1c0-.37.09-.66.12-.89q.1-1.34.1-1.92V29.4a20.72,20.72,0,0,1,.1-2.35,5.81,5.81,0,0,0,0-.86A13.23,13.23,0,0,0,98,24.8l0-1.34q0-.72.1-2a26.82,26.82,0,0,0,.24-3.84,1.27,1.27,0,0,0,0-.38,4.36,4.36,0,0,1-.14-1.3v-.67a9.27,9.27,0,0,0-.72-3.6,5.42,5.42,0,0,0-.86-1.34,2.14,2.14,0,0,0-1.63-.82,2.36,2.36,0,0,0-1.49.58,8,8,0,0,0-1.82,2.26A27.66,27.66,0,0,0,90,15.92l-.67,1.63a7.82,7.82,0,0,0-.58,2.88l-.29,4.51-.24,3.74-.19,3.55q-.1,1.06-.19,1.54a1.42,1.42,0,0,1-.58.91A17.78,17.78,0,0,1,83.9,37a4.19,4.19,0,0,1-1.39.48l-.38,0a1.88,1.88,0,0,1-1.78-1.25,8.78,8.78,0,0,1-.48-2.16c0-.38,0-.94,0-1.68A28.19,28.19,0,0,1,80,29l.14-1a10.36,10.36,0,0,0,.14-2,25.28,25.28,0,0,1,.14-4.08q.24-2.11.29-2.45l.19-2a7.15,7.15,0,0,1,.24-1.27l.29-1,0-.29a1.45,1.45,0,0,1,1.25-1.34,5.1,5.1,0,0,1,1.39-.24,2.91,2.91,0,0,1,.62,0l1,.1a4.4,4.4,0,0,1,1.61.48,4.94,4.94,0,0,1,.91.53c.13.06.22,0,.29,0l.62-.91,1.58-2.3a10.33,10.33,0,0,1,4.08-3.36,5.08,5.08,0,0,1,2.21-.48,5.91,5.91,0,0,1,2.33.48,5.74,5.74,0,0,1,1.94,1.34,3.59,3.59,0,0,1,.55.74q.26.46.36.6A15.85,15.85,0,0,1,104,16.73a18.85,18.85,0,0,1,.14,2.69,1.62,1.62,0,0,0,.29.91q.19.19.24,0a7.51,7.51,0,0,0,.58-1.34,51.75,51.75,0,0,1,2.3-5.9,30,30,0,0,1,2.35-4.46,19.14,19.14,0,0,1,2.69-3.41,5.39,5.39,0,0,1,3.55-1.44,3.34,3.34,0,0,1,2.09.72,3.56,3.56,0,0,1,1.27,1.82,17.79,17.79,0,0,1,.62,3.65Q120.19,10.35,120.28,12.94Z"/><path d="M142.84,35.6a.83.83,0,0,1,0,.72,30.6,30.6,0,0,1-1.49,3.7,42.91,42.91,0,0,1-4.56,7.39,10.25,10.25,0,0,1-2.45,2.4,4.43,4.43,0,0,1-2.59.77,10.15,10.15,0,0,1-1.06-.1,3.22,3.22,0,0,1-2.16-1.54,3.85,3.85,0,0,1-.24-1.78,33.7,33.7,0,0,1,.34-4.42,5,5,0,0,0,0-.84,4.92,4.92,0,0,1,0-.84l.24-2.54q0-.19.34-3a21.25,21.25,0,0,1,.48-3,2.51,2.51,0,0,1,1-1.37,5.12,5.12,0,0,1,1.39-.67,4.92,4.92,0,0,1,1.54-.29,1.38,1.38,0,0,1,.62.14.79.79,0,0,1,.19.14.33.33,0,0,1,.1.24l0,.1a2.39,2.39,0,0,0-.36.79,8.24,8.24,0,0,0-.19,1c0,.35-.07.58-.07.67q-.1,1.06-.1,1.87l-.17,2.45a22.68,22.68,0,0,1-.31,2.69q-.19,1.44-.48,3.94a4,4,0,0,0,0,.72,9.29,9.29,0,0,0,.12,1.37q.12.79.17,1.18a2,2,0,0,0,.34.82.64.64,0,0,0,.67.53.9.9,0,0,0,.58-.24,6,6,0,0,0,1.15-1.2q1.34-1.82,2-2.83,2-3.26,3.65-6.58.1-.24,1-1.92C142.49,35.72,142.65,35.6,142.84,35.6Zm-9.6-8.26a5.91,5.91,0,0,0-1.3-.24,1.61,1.61,0,0,1-.43-.19,2.1,2.1,0,0,0-.38-.19.46.46,0,0,1-.29-.43.28.28,0,0,1,0-.19,8.34,8.34,0,0,1,.48-1.42,2,2,0,0,1,.82-.84,2.49,2.49,0,0,1,1.2-.43,2.26,2.26,0,0,1,1.3.62.56.56,0,0,1,.29.48l0,.19a20.58,20.58,0,0,1-.67,2.16q-.14.48-.82.48Z"/><path d="M146.78,65.69a9.07,9.07,0,0,1-2.35-.34,5.88,5.88,0,0,0-1.06-.24,12,12,0,0,1-1.92-.58,8.18,8.18,0,0,1-5-5.47q0-.15-.43-1.1a7,7,0,0,1-.38-2.54,11.65,11.65,0,0,1,.86-4.13,8.27,8.27,0,0,1,1.15-2,17.37,17.37,0,0,1,1.78-1.94,32.65,32.65,0,0,1,6.72-4.9l.62-.38a2.72,2.72,0,0,1,.43-.22.39.39,0,0,0,.29-.36v0a.58.58,0,0,0-.38-.43,1.85,1.85,0,0,1-.38-.19,2.24,2.24,0,0,0-.5-.19l-.36-.1q-1.54-.38-2.3-.62a4.15,4.15,0,0,1-1.78-1.06,1.45,1.45,0,0,1-.5-.65l-.22-.5a2.93,2.93,0,0,1-.24-1.3,6.18,6.18,0,0,1,.22-1.58,11.54,11.54,0,0,1,.41-1.3,6.54,6.54,0,0,1,2.14-2.11,5.52,5.52,0,0,1,3.1-1,3.42,3.42,0,0,1,1.39.24.23.23,0,0,1,.12,0s.07.06.07.1a.12.12,0,0,1,0,.19,1.42,1.42,0,0,1-.82.62,5.48,5.48,0,0,0-1.94.86,1.71,1.71,0,0,0-.89,1.34l.1.38a3.64,3.64,0,0,0,1.7,1.78,33.71,33.71,0,0,0,3.53,1.78,9.56,9.56,0,0,1,2,1.06,1.44,1.44,0,0,0,.86.38,1.7,1.7,0,0,0,.67-.14l3.36-1.54q2.5-1.2,4.27-1.92a3.92,3.92,0,0,0,.74-.31,7.06,7.06,0,0,1,.65-.31,2.32,2.32,0,0,1,1-.29c.19,0,.29,0,.29.14s.06.22-.1.29a10.63,10.63,0,0,1-1.15.6l-1.06.5a15.42,15.42,0,0,0-1.78.79l-1.78.89q-2.11,1.06-3.12,1.49l-.38.17a2.71,2.71,0,0,0-.43.22.25.25,0,0,0-.22.22.25.25,0,0,0,.12.26,18.74,18.74,0,0,1,1.44,1.25,14.78,14.78,0,0,0,1.25,1.15,6.55,6.55,0,0,1,1.92,2.78l.36.82.31.72a19.28,19.28,0,0,1,1.1,4.94,3.63,3.63,0,0,1,0,.67,2.74,2.74,0,0,1-.19,1.1,6.56,6.56,0,0,0-.19.77,14.15,14.15,0,0,1-6.1,9,11.48,11.48,0,0,1-5,2q-.39,0-1,.17A5.64,5.64,0,0,1,146.78,65.69Zm8.54-12a13,13,0,0,0-.58-3.84q-.19-.63-1.1-3a3.81,3.81,0,0,0-.67-1.1l-1.3-1.32a13.83,13.83,0,0,0-2.21-1.85,1.23,1.23,0,0,0-.82-.34,1.44,1.44,0,0,0-.77.29,50.46,50.46,0,0,0-5.14,3.46l-1.34,1a13.14,13.14,0,0,0-1.68,1.54,10.82,10.82,0,0,0-1.49,2.28,9,9,0,0,0-1.06,4,7.62,7.62,0,0,0,.48,2.62,20,20,0,0,0,1.44,3,6,6,0,0,0,2.57,2.35,7.79,7.79,0,0,0,3.48.82,6.65,6.65,0,0,0,1.39-.14,7.89,7.89,0,0,0,4.18-2,18.28,18.28,0,0,0,3.17-3.5A7.67,7.67,0,0,0,155.32,53.74Z"/><path d="M167.08,65.69a9.07,9.07,0,0,1-2.35-.34,5.88,5.88,0,0,0-1.06-.24,12,12,0,0,1-1.92-.58,8.18,8.18,0,0,1-5-5.47q0-.15-.43-1.1a7,7,0,0,1-.38-2.54,11.65,11.65,0,0,1,.86-4.13,8.27,8.27,0,0,1,1.15-2,17.37,17.37,0,0,1,1.78-1.94,32.65,32.65,0,0,1,6.72-4.9l.62-.38a2.72,2.72,0,0,1,.43-.22.39.39,0,0,0,.29-.36v0a.58.58,0,0,0-.38-.43,1.85,1.85,0,0,1-.38-.19,2.24,2.24,0,0,0-.5-.19l-.36-.1q-1.54-.38-2.3-.62a4.15,4.15,0,0,1-1.78-1.06,1.45,1.45,0,0,1-.5-.65l-.22-.5a2.93,2.93,0,0,1-.24-1.3,6.18,6.18,0,0,1,.22-1.58,11.54,11.54,0,0,1,.41-1.3,6.54,6.54,0,0,1,2.14-2.11,5.52,5.52,0,0,1,3.1-1,3.42,3.42,0,0,1,1.39.24.23.23,0,0,1,.12,0s.07.06.07.1a.12.12,0,0,1,0,.19,1.42,1.42,0,0,1-.82.62,5.48,5.48,0,0,0-1.94.86,1.71,1.71,0,0,0-.89,1.34l.1.38a3.64,3.64,0,0,0,1.7,1.78,33.71,33.71,0,0,0,3.53,1.78,9.56,9.56,0,0,1,2,1.06,1.44,1.44,0,0,0,.86.38,1.7,1.7,0,0,0,.67-.14l3.36-1.54q2.5-1.2,4.27-1.92a3.92,3.92,0,0,0,.74-.31,7.06,7.06,0,0,1,.65-.31,2.32,2.32,0,0,1,1-.29c.19,0,.29,0,.29.14s.06.22-.1.29a10.63,10.63,0,0,1-1.15.6l-1.06.5A15.42,15.42,0,0,0,180,37l-1.78.89q-2.11,1.06-3.12,1.49l-.38.17a2.71,2.71,0,0,0-.43.22.25.25,0,0,0-.22.22.25.25,0,0,0,.12.26,18.74,18.74,0,0,1,1.44,1.25,14.78,14.78,0,0,0,1.25,1.15,6.55,6.55,0,0,1,1.92,2.78l.36.82.31.72a19.28,19.28,0,0,1,1.1,4.94,3.63,3.63,0,0,1,0,.67,2.74,2.74,0,0,1-.19,1.1,6.56,6.56,0,0,0-.19.77,14.15,14.15,0,0,1-6.1,9,11.48,11.48,0,0,1-5,2q-.39,0-1,.17A5.64,5.64,0,0,1,167.08,65.69Zm8.54-12a13,13,0,0,0-.58-3.84q-.19-.63-1.1-3a3.81,3.81,0,0,0-.67-1.1L172,44.5a13.83,13.83,0,0,0-2.21-1.85,1.23,1.23,0,0,0-.82-.34,1.44,1.44,0,0,0-.77.29,50.46,50.46,0,0,0-5.14,3.46l-1.34,1A13.14,13.14,0,0,0,160,48.63a10.82,10.82,0,0,0-1.49,2.28,9,9,0,0,0-1.06,4,7.62,7.62,0,0,0,.48,2.62,20,20,0,0,0,1.44,3A6,6,0,0,0,162,62.86a7.79,7.79,0,0,0,3.48.82,6.65,6.65,0,0,0,1.39-.14,7.89,7.89,0,0,0,4.18-2,18.28,18.28,0,0,0,3.17-3.5A7.67,7.67,0,0,0,175.63,53.74Z"/><path d="M195.93,35.6a.83.83,0,0,1,0,.72,30.6,30.6,0,0,1-1.49,3.7,42.91,42.91,0,0,1-4.56,7.39,10.25,10.25,0,0,1-2.45,2.4,4.43,4.43,0,0,1-2.59.77,10.15,10.15,0,0,1-1.06-.1,3.22,3.22,0,0,1-2.16-1.54,3.85,3.85,0,0,1-.24-1.78,33.7,33.7,0,0,1,.34-4.42,5,5,0,0,0,0-.84,4.92,4.92,0,0,1,0-.84l.24-2.54q0-.19.34-3a21.25,21.25,0,0,1,.48-3,2.51,2.51,0,0,1,1-1.37,5.12,5.12,0,0,1,1.39-.67,4.92,4.92,0,0,1,1.54-.29,1.38,1.38,0,0,1,.62.14.79.79,0,0,1,.19.14.33.33,0,0,1,.1.24l0,.1a2.39,2.39,0,0,0-.36.79,8.24,8.24,0,0,0-.19,1c0,.35-.07.58-.07.67q-.1,1.06-.1,1.87l-.17,2.45a22.68,22.68,0,0,1-.31,2.69q-.19,1.44-.48,3.94a4,4,0,0,0,0,.72,9.29,9.29,0,0,0,.12,1.37q.12.79.17,1.18a2,2,0,0,0,.34.82.64.64,0,0,0,.67.53.9.9,0,0,0,.58-.24,6,6,0,0,0,1.15-1.2q1.34-1.82,2-2.83,2-3.26,3.65-6.58.1-.24,1-1.92C195.58,35.72,195.74,35.6,195.93,35.6Zm-9.6-8.26a5.91,5.91,0,0,0-1.3-.24,1.61,1.61,0,0,1-.43-.19,2.1,2.1,0,0,0-.38-.19.46.46,0,0,1-.29-.43.28.28,0,0,1,0-.19,8.34,8.34,0,0,1,.48-1.42,2,2,0,0,1,.82-.84,2.49,2.49,0,0,1,1.2-.43,2.26,2.26,0,0,1,1.3.62.56.56,0,0,1,.29.48l0,.19a20.58,20.58,0,0,1-.67,2.16q-.14.48-.82.48Z"/><path d="M208.6,33.24a8.2,8.2,0,0,1-1.06,2.33,6.51,6.51,0,0,1-1.78,1.56,1.23,1.23,0,0,1-.46.22.26.26,0,0,0-.22.12,1.47,1.47,0,0,0-.1.29A14.61,14.61,0,0,1,203.8,41a7,7,0,0,1-2,2.45,4.61,4.61,0,0,1-2.69.91,4.33,4.33,0,0,1-1.61-.34,4,4,0,0,1-1.37-.86l-.19-.19a16.11,16.11,0,0,1-1.75-2.71,5.76,5.76,0,0,1-.6-2.57,17.23,17.23,0,0,1,.67-4.75,14.22,14.22,0,0,1,2-4.22,4,4,0,0,1,1.9-1.44,7.11,7.11,0,0,1,2.62-.48A3.68,3.68,0,0,1,204,28.44a8.61,8.61,0,0,1,1.1,3.79q.1.82.1,3v.91q.1.43.43.43l.19,0a1.47,1.47,0,0,0,.82-.38,5.71,5.71,0,0,0,1.44-1.87,1.73,1.73,0,0,0,.24-.46l.1-.26Zm-7.68-5.86a.83.83,0,0,0-.67.29q-.14.24-.84,1.3a9.73,9.73,0,0,0-1.08,2.16,12.83,12.83,0,0,0-.67,4.75,7.55,7.55,0,0,0,.24,1.25l.19,1.3a6.08,6.08,0,0,0,1.2,2.78,3.15,3.15,0,0,0,1.63,1.15.93.93,0,0,0,1-.34l.43-.62a8.87,8.87,0,0,0,1.3-3.31,2,2,0,0,0,0-.48.6.6,0,0,0-.17-.48,1.9,1.9,0,0,0-.6-.29l-.22-.1-.26-.1a2.63,2.63,0,0,1-1.58-2.3q-.1-1-.1-1.49a7.22,7.22,0,0,1,1.39-4.51q.38-.43-.24-.77A2.46,2.46,0,0,0,200.92,27.39ZM204,33.58a26.31,26.31,0,0,0-.29-3.22,5.39,5.39,0,0,0-.43-1.2A.37.37,0,0,0,203,29a.25.25,0,0,0-.26.12,3.2,3.2,0,0,0-.67,1.2,8.19,8.19,0,0,0-.29,2.16,4.34,4.34,0,0,0,0,.77,5.48,5.48,0,0,0,.38,1.58A2,2,0,0,0,203.37,36a.33.33,0,0,0,.36,0,.53.53,0,0,0,.22-.31,4.55,4.55,0,0,0,.1-1.06A7.23,7.23,0,0,0,204,33.58Z"/><path d="M211.77,29.26a.83.83,0,0,0,.5-.41,1.46,1.46,0,0,1,.17-.31,37.23,37.23,0,0,1,3.07-4.27,9.49,9.49,0,0,1,2.4-2.11,4,4,0,0,1,2.21-.62,1.45,1.45,0,0,1,1.3.86,10.53,10.53,0,0,1,.34,1.25c0,.29,0,.74,0,1.34a22.58,22.58,0,0,1-.14,2.5q-.67,4.7-1.25,7.06a20.58,20.58,0,0,0-.34,2.74q0,.29,0,.72a9.57,9.57,0,0,1-.12,1,18.24,18.24,0,0,0-.14,2.26v1q0,.34,0,.82a9.86,9.86,0,0,1,0,1.15,2.84,2.84,0,0,0,.34,1.58l.46.1a1.87,1.87,0,0,0,.41,0,.8.8,0,0,0,.53-.29,10.23,10.23,0,0,0,1-1.1l.58-.77.67-.91a27.57,27.57,0,0,0,2.3-5q.86-2.49.86-1.82a14.89,14.89,0,0,1-1.37,4,23.93,23.93,0,0,1-2.38,4.49,10,10,0,0,1-1.82,2,2.85,2.85,0,0,1-1,.58,2.21,2.21,0,0,1-.91.19,2.45,2.45,0,0,1-1.68-.86,5.64,5.64,0,0,1-1-1.73,7.07,7.07,0,0,0-.53-1.15q-.1-1.44-.1-2.06a21.37,21.37,0,0,1,.29-2.9q.24-1.42.72-3.67.1-.53.53-2.11a17.25,17.25,0,0,0,.77-3.5A11.54,11.54,0,0,0,219,27.1a18.14,18.14,0,0,1,.53-1.92q.19-.53.48-1.58a1.71,1.71,0,0,0,0-.48.43.43,0,0,0-.12-.31.37.37,0,0,0-.26-.12l-.14,0a2.65,2.65,0,0,0-.72.34,8.8,8.8,0,0,0-1.58,1.44,47.68,47.68,0,0,0-4.7,6.58,3.12,3.12,0,0,0-.48,1.58,8.94,8.94,0,0,0,0,1.06c0,.19,0,.42,0,.67a6.16,6.16,0,0,1,0,.91Q212,37,211.84,38a8.49,8.49,0,0,1-.5,2,1.3,1.3,0,0,1-1.1.86l-.38.1a1.28,1.28,0,0,1-.58.14,2.22,2.22,0,0,1-1.1-.43,2.26,2.26,0,0,1-.6-.53,1,1,0,0,1-.17-.58,2,2,0,0,1,0-.48,19.18,19.18,0,0,0,.43-3q.1-1.51.1-3.77,0-1.73-.1-5.28v-.86a1.77,1.77,0,0,1,.55-1.13,1.9,1.9,0,0,1,1.18-.46,1,1,0,0,1,1.15,1q.24,1.63.29,1.78a1,1,0,0,0,.19.62,1.89,1.89,0,0,1,.31.67A6.5,6.5,0,0,0,211.77,29.26Z"/></svg>