<svg id="Layer_1" data-name="Layer 1" xmlns="http://www.w3.org/2000/svg" viewBox="0 0 117.5 85.22"><title>dadArtboard 7@1x</title><path d="M16.87,47.7a27.51,27.51,0,0,1-3.55-.29,12.8,12.8,0,0,1-2.93-.82A14.27,14.27,0,0,1,4,41.75a11.88,11.88,0,0,1-2.4-7.2A13,13,0,0,1,2.86,29,7.16,7.16,0,0,1,6.62,25.5a12.73,12.73,0,0,1,5.26-1.22,4.85,4.85,0,0,1,1.63.22c.38.14.56.36.53.65,0,.13-.14.18-.34.17a8.73,8.73,0,0,1-1-.17A6.64,6.64,0,0,0,11.35,25a3.94,3.94,0,0,0-.72,0A9.15,9.15,0,0,0,7,26.29a5.46,5.46,0,0,0-2.54,2.5q-.34.86-.65,1.82a7.18,7.18,0,0,0-.36,1.82,7.73,7.73,0,0,0,0,1,11.87,11.87,0,0,0,1.2,5.16A11.71,11.71,0,0,0,7.9,42.8a8.46,8.46,0,0,0,4.75,1.87,34.22,34.22,0,0,0,3.94.14c.51,0,.88,0,1.1,0l.38,0a7.7,7.7,0,0,0,4.39-2.23A12.55,12.55,0,0,0,25.32,38,21.07,21.07,0,0,0,27,30.95a9.52,9.52,0,0,0-1.54-5.23,23.14,23.14,0,0,0-5.09-5.23,26.1,26.1,0,0,1-3.79-3.6,8.07,8.07,0,0,1-1.82-5.14,9.41,9.41,0,0,1,1.44-5.09,2.6,2.6,0,0,1,.77-.82,11.21,11.21,0,0,1,1.94-.94,5.56,5.56,0,0,1,1.85-.31A10.31,10.31,0,0,1,23,4.84a4.19,4.19,0,0,1,1.85,1A1.87,1.87,0,0,1,25.75,7a.16.16,0,0,1,0,.17s-.06.07-.1.07a.11.11,0,0,1-.12,0,.29.29,0,0,1-.12-.07,4.38,4.38,0,0,0-3.84-1.78l-.82,0a3.21,3.21,0,0,0-1.9.67,3.38,3.38,0,0,0-1.13,1.68,8,8,0,0,0-.38,2.35A6.22,6.22,0,0,0,18,12.9q.1.19.5,1.1a7.49,7.49,0,0,0,1,1.63,12.86,12.86,0,0,0,3,2.69,38.41,38.41,0,0,0,3.74,2.06,24,24,0,0,1,3.67,2.14A7,7,0,0,1,32,25.43a13.33,13.33,0,0,1,.84,5.23q0,1.2-.14,2.64a16.76,16.76,0,0,1-1.54,6A14,14,0,0,1,20,47.41,17,17,0,0,1,16.87,47.7Z"/><path d="M47.83,17.32a1,1,0,0,0,.34-.67q0-.58-.86-.89a5.47,5.47,0,0,0-1.87-.31,3.06,3.06,0,0,0-1,.1q-2,.67-3,1.06a12.8,12.8,0,0,1-1.92.67.79.79,0,0,0-.43.1.51.51,0,0,0-.36.17,1.26,1.26,0,0,0-.12.41v1.87q0,.82,0,2.45t0,4.61q0,1.87-.19,5.62l0,1.3q-.1,1.73-.1,2.54a2,2,0,0,0,0,.48q.1,1.1.1,3.41,0,.58,0,1.68t.24,3.41a3.91,3.91,0,0,0,1,2.21A1.76,1.76,0,0,0,41,48a4.23,4.23,0,0,0,1.56-.31,2.42,2.42,0,0,0,1.13-.79,19.73,19.73,0,0,0,2.5-3.67A22.1,22.1,0,0,0,48,39.06q.19-.67.48-2.21l.34-1.54L49,34.5c.1,0,.14,0,.14.1V35a7.46,7.46,0,0,1-.29,2.06,24.08,24.08,0,0,1-2.16,6.48,12.86,12.86,0,0,1-2.54,3.7,5.45,5.45,0,0,1-2.93,1.58,8.91,8.91,0,0,1-1.82.24q-5.14,0-5.14-8.74l0-3.46q0-1.15,0-3.41l0-1.2q.1-1.44.1-2.16a12.89,12.89,0,0,1,.1-1.34q0-.86,0-2.28t0-2.81l.1-5.09a.78.78,0,0,0-.1-.46.7.7,0,0,0-.43-.17,1.49,1.49,0,0,0-.53,0,3,3,0,0,1-.48,0A.82.82,0,0,1,33,18q-1.34-.24-3.12-.72a12.37,12.37,0,0,1-2.64-1q-1.82-1.05-1.82-2a4.38,4.38,0,0,1,0-.77,1.65,1.65,0,0,1,.5-.41,1.36,1.36,0,0,1,.65-.17,1,1,0,0,1,.72.29,1.76,1.76,0,0,1,.86,1.3c0,.06-.07.18-.22.34a.68.68,0,0,0-.22.38.52.52,0,0,0,.24.38,3.81,3.81,0,0,0,1.63.48,4.61,4.61,0,0,0,.86,0q1,0,2.38-.1a7.39,7.39,0,0,0,1.56-.19l.31,0a.34.34,0,0,0,.24-.12A1.12,1.12,0,0,0,35,15.2a5,5,0,0,1,.48-2,1.06,1.06,0,0,0,.19-.46,3,3,0,0,1,.1-.41.85.85,0,0,1,.34-.6,3.12,3.12,0,0,1,1-.41l.46-.14a1.92,1.92,0,0,1,.55-.1,1.24,1.24,0,0,1,.38,0l.17.12a.2.2,0,0,1,.12.17l0,.1a3.92,3.92,0,0,0-.1,1q0,.53.1,1.58a3.09,3.09,0,0,0,0,.79.23.23,0,0,0,.24.22s.3-.1.82-.29A13,13,0,0,1,43.94,14a5.55,5.55,0,0,1,2,.34,6.23,6.23,0,0,0,.79.31,3.17,3.17,0,0,1,.84.41,4.23,4.23,0,0,1,1.15,1l.24.34a1.48,1.48,0,0,1,.48,1.15,2.25,2.25,0,0,1-.14.84c-.1.24-.21.38-.34.41a2.6,2.6,0,0,1-.58.1.9.9,0,0,1-.48-.1.65.65,0,0,1-.43-.62v-.19A2.27,2.27,0,0,1,47.83,17.32Z"/><path d="M63.29,34.21q.43-1,.53-1s0,0,0,.1a2.91,2.91,0,0,1-.34,1.06,20.16,20.16,0,0,1-4.66,8.35,6.94,6.94,0,0,1-2,1.54l-.19.12-.24.17a6.34,6.34,0,0,1-3.7,1.3,4.6,4.6,0,0,1-3.17-1.2,5.59,5.59,0,0,1-1.73-3.26,25.79,25.79,0,0,1-.34-2.9q-.14-1.94-.14-3.43a11.13,11.13,0,0,1,0-1.3q.38-3.17.67-4.54a7.54,7.54,0,0,1,1.32-2.81,7,7,0,0,1,3.19-2.3,6.47,6.47,0,0,1,2.4-.58q2,0,2.69,2.54a2.7,2.7,0,0,1,.1.82,5.94,5.94,0,0,1-.91,2.74,16.35,16.35,0,0,1-2.4,3A5,5,0,0,1,52.05,34a1,1,0,0,0-.67.72,11.09,11.09,0,0,0-.24,2.16,12.69,12.69,0,0,0,1.2,5.18,2.93,2.93,0,0,0,2.74,2.06,3.61,3.61,0,0,0,1.8-.5,6.26,6.26,0,0,0,1.61-1.32A28.07,28.07,0,0,0,61.13,39a21.15,21.15,0,0,0,1.49-3.22Q63.19,34.36,63.29,34.21Zm-6.62-8.06a.37.37,0,0,0-.07-.34.44.44,0,0,0-.36-.14h-.1a2,2,0,0,0-1,.53q-.29.34-.77,1a18.37,18.37,0,0,0-2.06,4.27c0,.1-.1.26-.19.48a1.59,1.59,0,0,0-.14.62v.19a1,1,0,0,0,.5,0,1.15,1.15,0,0,0,.43-.29,2.59,2.59,0,0,1,.36-.31l.43-.43a15.25,15.25,0,0,0,2.4-3.46l.38-.67Z"/><path d="M67.8,35.8a4.14,4.14,0,0,1,.1.77l0,1A2.66,2.66,0,0,0,68.18,39a.84.84,0,0,0,.62-.19q2.26-1.25,4.85-2.83.43-.24,1.58-1A17.18,17.18,0,0,1,78,33.3a.29.29,0,0,1,.43.1.15.15,0,0,1,0,.14.21.21,0,0,1-.12.14,20.71,20.71,0,0,1-2.26,1.49l-1.82,1.15Q73.22,37,71.4,38.2l-2.45,1.54a1.12,1.12,0,0,0-.62,1v.19a2.4,2.4,0,0,0,0,.29,4.59,4.59,0,0,1,0,.53q0,2.59-.41,10.44T67.32,63.3a28.58,28.58,0,0,1-1,4.46,27.8,27.8,0,0,1-1.58,4.46l-.62,1.2q-.1.24-.5,1.06a8.93,8.93,0,0,1-.89,1.44,9.49,9.49,0,0,1-5.81,4.37,12.06,12.06,0,0,1-2.59.34,5.63,5.63,0,0,1-2-.36A17.58,17.58,0,0,1,49.8,79a7.34,7.34,0,0,1-3-3.22A13.35,13.35,0,0,1,45.57,70a23.48,23.48,0,0,1,1.25-7.25,31.46,31.46,0,0,1,6-10.66,66.34,66.34,0,0,1,10.08-9.6c.22-.16.43-.32.62-.48a.51.51,0,0,0,.24-.48v-.19q-.1-.86-.19-2.78,0-1.1,0-1.68A26.61,26.61,0,0,0,63,33.35a25.36,25.36,0,0,1-.48-2.64,14.18,14.18,0,0,0-.38-2.64q-.38-1.82-.58-3.41a6.18,6.18,0,0,1,0-.91,1.52,1.52,0,0,1,.91-1.3c.19-.1.39-.18.6-.26a3.53,3.53,0,0,0,.55-.26,2.62,2.62,0,0,1,.53-.1,2.69,2.69,0,0,1,.62.1q.53.19.53.62a.66.66,0,0,0,.14.48l.62.38a.34.34,0,0,0,.31-.07l.26-.17a3.55,3.55,0,0,1,2.21-.62,5,5,0,0,1,2.14.48,3.7,3.7,0,0,1,1.61,1.39,12.11,12.11,0,0,1,1.58,3.17,7.74,7.74,0,0,1,.34,2.35,9.13,9.13,0,0,1-.77,3.55A4.67,4.67,0,0,1,71,36a3.31,3.31,0,0,1-1.2.24,4.11,4.11,0,0,1-1.06-.19l-.34-.17a1.07,1.07,0,0,0-.48-.12ZM47.06,70.21a9.55,9.55,0,0,0,.22,2.26A13.07,13.07,0,0,0,48,75a4.44,4.44,0,0,0,1.15,1.66,10.8,10.8,0,0,0,2,1.37,5.34,5.34,0,0,0,.79.36,2.24,2.24,0,0,0,.7.17q2.26.14,4.7-2.16a12.09,12.09,0,0,0,2.35-3,23.7,23.7,0,0,0,1.49-3.24,3,3,0,0,0,.24-.5,4.6,4.6,0,0,1,.19-.46l1.15-5.28q.24-1,.82-10t.48-10.25c0-.22-.06-.34-.19-.34a.83.83,0,0,0-.34.14q-1.58,1.06-2,1.39A64.33,64.33,0,0,0,55,51,29.69,29.69,0,0,0,48.69,61a27.73,27.73,0,0,0-1.15,4.42A30.29,30.29,0,0,0,47.06,70.21Zm21.6-35.14a4.69,4.69,0,0,0,1-2.3,16,16,0,0,0,.36-3.46,9,9,0,0,0-.43-3.22A8.14,8.14,0,0,0,69,24.8a2.6,2.6,0,0,0-.89-.82,4.16,4.16,0,0,0-.53-.19q-.24,0-.48.53a6.13,6.13,0,0,0-.43,2.83q.1.67.19,2.21l.1,1.1q0,1,.24,2.54a5.82,5.82,0,0,0,.62,1.73Q68.23,35.51,68.66,35.08Z"/><path d="M103.65,34.31a.55.55,0,0,1-.46-.22,2.2,2.2,0,0,1-.22-.31,8,8,0,0,0-1.78-1.49,5.29,5.29,0,0,0-2.5-.77,4,4,0,0,0-2.88,1.3,8.57,8.57,0,0,0-2.69,6A8.9,8.9,0,0,0,93.43,41a4.34,4.34,0,0,0,3.22,3.26,10.8,10.8,0,0,0,9.6-1.63,6.75,6.75,0,0,0,.62-.43l.43-.34a7.28,7.28,0,0,0,1.49-1.73,19.79,19.79,0,0,0,2.21-6,14.14,14.14,0,0,0,.22-1.58q.07-.86.12-1.2a1.57,1.57,0,0,0-.14-1,7.11,7.11,0,0,1-.34-2.26,9.36,9.36,0,0,0-1.1-4.18,2.19,2.19,0,0,0-2-1.34,3.18,3.18,0,0,0-.91.14l-.6.17a1.91,1.91,0,0,1-1.27,0,1.53,1.53,0,0,0-.77.14,2.62,2.62,0,0,1-.58.1,1.37,1.37,0,0,1-.72-.24,1.65,1.65,0,0,0-.65-.19,5,5,0,0,1-.6-.1q-.86-.14-.86-.91l-.14-.38a.78.78,0,0,1,.29-.91l.77-.67a18,18,0,0,0,3.36-4.32,7.09,7.09,0,0,1,1.39-1.82,4.25,4.25,0,0,0,.77-.91,6.75,6.75,0,0,0,.6-1.22l.36-.94a2.3,2.3,0,0,0,.14-.82,1,1,0,0,0-.29-.77q-.34-.24-1.34.19a20.55,20.55,0,0,0-3.84,2q-1.34.86-1.54,1c-.19.13-.34.11-.43,0a.43.43,0,0,1,0-.43l.19-.19a21.09,21.09,0,0,1,5.23-3.65,11,11,0,0,1,1.15-.41,4.29,4.29,0,0,1,1.2-.17,2.29,2.29,0,0,1,1.66.62,2.92,2.92,0,0,1,.84,1.54,8.26,8.26,0,0,1,.19,1.87,9.09,9.09,0,0,1-1.44,4.9,15,15,0,0,1-2.54,3,5.55,5.55,0,0,0-.67.77.16.16,0,0,0,0,.19.15.15,0,0,0,.14.1,10,10,0,0,0,1.15,0,10,10,0,0,1,3.84.91,6.48,6.48,0,0,1,3.31,3.89,9,9,0,0,1,.53,3c0,.13,0,.29,0,.48a4.2,4.2,0,0,0,.12.67,3.19,3.19,0,0,1,0,.67,1.87,1.87,0,0,1-.1.67,1.65,1.65,0,0,0-.1.67,18.29,18.29,0,0,1-1.34,6.86,13.41,13.41,0,0,1-4.51,6.24,8.84,8.84,0,0,1-2.74,1.39l-1.2.43a9.86,9.86,0,0,1-1.2.38,16.84,16.84,0,0,1-4.51.72,12.66,12.66,0,0,1-5.38-1.2,6.16,6.16,0,0,1-3.84-6,10.46,10.46,0,0,1,3.84-8.26,5.42,5.42,0,0,1,3.7-1.34,6.17,6.17,0,0,1,1.87.29,5.66,5.66,0,0,1,1.58.77A5.32,5.32,0,0,1,103.7,34v.24Z"/></svg>