<svg id="Layer_1" data-name="Layer 1" xmlns="http://www.w3.org/2000/svg" viewBox="0 0 119.5 49.25"><title>dadArtboard 11@1x</title><path d="M6.68,37.25a32.47,32.47,0,0,1,.38-4A11.5,11.5,0,0,1,8.12,30a13.12,13.12,0,0,1,5.81-6.14,12.77,12.77,0,0,1,6.19-1.34,19.86,19.86,0,0,1,4.13.62c.74.13,1.1.26,1.1.38s-.27.14-.82.14a19.33,19.33,0,0,1-2-.14,25.81,25.81,0,0,0-2.64-.14,9.73,9.73,0,0,0-6.1,1.78A15.24,15.24,0,0,0,9.84,30,12.49,12.49,0,0,0,8.26,36q0,5.52,1.25,7.39A8.06,8.06,0,0,0,12.75,46a20.87,20.87,0,0,0,4.44,1.68,13.56,13.56,0,0,0,2.74.34,11.63,11.63,0,0,0,4.8-1,13.94,13.94,0,0,0,4.18-2.9,19,19,0,0,0,2.69-3.26,30.76,30.76,0,0,0,2.06-4.13,47.32,47.32,0,0,0,1.73-4.94q1-3.31,1.68-6a1.59,1.59,0,0,0,0-.82,5.41,5.41,0,0,0-.46-1.06,1.66,1.66,0,0,1-.19-.48,1,1,0,0,1,.48-.77,2.28,2.28,0,0,0,.58-.74,8.05,8.05,0,0,0,.38-1q1.25-4.66,2.28-7.42A19.67,19.67,0,0,1,43.2,8q3.26-4.13,4.32-4.13.67,0,.67,1.54,0,.34-.1,1.49a4.67,4.67,0,0,0,.24,1.49,4.56,4.56,0,0,1,.29,1.3q.34,2.64.48,6l.24,3,.24,2.88.14,1.78q.14,2.74.53,6.19a3.88,3.88,0,0,0,.1.79q.1.46.14.65A1.3,1.3,0,0,1,50,32.3a9.39,9.39,0,0,1-2.33,1.54,11.83,11.83,0,0,1-2.71,1.06,1.86,1.86,0,0,1-.67.1q-1.3,0-1.39-1.73l0-1.25a6,6,0,0,1,.1-1q.1-.77.14-1.73c0-.64,0-1.09,0-1.34a24.28,24.28,0,0,1,.14-3.12.37.37,0,0,0,0-.41.54.54,0,0,0-.43-.17h-.1a2.24,2.24,0,0,0-.77.1q-1.68.34-1.94.43t-.41.77l-.24,1.1a44.56,44.56,0,0,1-4.13,11.38,24.31,24.31,0,0,1-5.76,7.44,14.79,14.79,0,0,1-9.7,3.74,16.6,16.6,0,0,1-5.18-.86A11.65,11.65,0,0,1,8.88,44.5,11.34,11.34,0,0,1,6.68,38Zm37.54-21.5h0q.1-2.88.1-4.32c.06-.06,0-.19,0-.38a.09.09,0,0,0-.1-.1H44a2.41,2.41,0,0,0-.53,1.15q-.34,1-.7,2.21T42,16.9q-.67,2-1.1,3.41,0,.19-.19.6a2.08,2.08,0,0,0-.14.65.71.71,0,0,0,.19.53.73.73,0,0,0,.53.24,1.7,1.7,0,0,0,.7-.19l.6-.29a1.62,1.62,0,0,0,.34-.12l.29-.12A1.29,1.29,0,0,0,44,20.35l.14-2.3Q44.21,16.51,44.21,15.74Z"/><path d="M69.84,28.9q1.25-1.78,1.06-1.3a13.17,13.17,0,0,1-3.41,4.51,9.26,9.26,0,0,1-.86.58A1,1,0,0,0,66,33.74l0,.58a19.32,19.32,0,0,1-.72,5.57,8.27,8.27,0,0,1-1,2.21A4.34,4.34,0,0,1,60.44,44a6.76,6.76,0,0,1-3.55-1,5.25,5.25,0,0,1-2.21-2.28,30.12,30.12,0,0,1-1.54-4.46,19.42,19.42,0,0,1-.77-5.71l0-1.49V28.9a6.12,6.12,0,0,1,0-.91,23.48,23.48,0,0,1,.29-3,11,11,0,0,0,.29-2q0-.38,0-1.15a8.79,8.79,0,0,1,.12-1.3A80.84,80.84,0,0,1,56.52,8.3q2.23-6.1,5.11-6.1a2.19,2.19,0,0,1,2,1.3,6.6,6.6,0,0,1,.53,2.69A18.83,18.83,0,0,1,63.08,12a52.61,52.61,0,0,1-2.3,5.88q-1.25,2.66-3.36,6.89a3.17,3.17,0,0,0-.29,1.34l0,2.88a39.53,39.53,0,0,0,.24,4.7,28,28,0,0,0,1.2,6,12.56,12.56,0,0,0,.72,1.49,5.37,5.37,0,0,0,.67.82,2.2,2.2,0,0,0,1.58.72,2.1,2.1,0,0,0,1.63-.86,4.23,4.23,0,0,0,1-1.63,19.33,19.33,0,0,0,.77-6.1.82.82,0,0,0-.62-.86,2.79,2.79,0,0,1-.72-.29,2.84,2.84,0,0,1-1.25-1.68,4.92,4.92,0,0,1-.14-1.2,4.53,4.53,0,0,1,.19-1.34,1.7,1.7,0,0,1,1.39-1.2,1.49,1.49,0,0,1,1.54.86,2.61,2.61,0,0,1,.34,1l.24,1.54.14.77a1.34,1.34,0,0,0,.19.41c.1.14.19.22.29.22l0,0,.31-.17a.64.64,0,0,0,.26-.22A16.34,16.34,0,0,0,69.84,28.9ZM62.64,6.1a3.57,3.57,0,0,1,0-.41,1.88,1.88,0,0,0,0-.5,2.83,2.83,0,0,0-.43-1.3.62.62,0,0,0-.58-.34.64.64,0,0,0-.53.24,10.53,10.53,0,0,0-.62,1.1A27.37,27.37,0,0,0,59,9.26Q57.84,14,57.41,16q-.1.58-.19,2.4a32.82,32.82,0,0,1-.29,3.7.13.13,0,0,0,.14.14.2.2,0,0,0,.14,0l.24-.43q.67-1.73,2.21-5.42T61.92,11A26.92,26.92,0,0,0,62.64,6.1Zm2.21,25.49-.29-2a1.9,1.9,0,0,0-.38-1,.56.56,0,0,0-.38-.19.32.32,0,0,0-.29.14.73.73,0,0,0-.34.38,2.87,2.87,0,0,0-.24,1.2,3.28,3.28,0,0,0,.43,1.63,1.27,1.27,0,0,0,.48.43,1.22,1.22,0,0,0,.53.29.74.74,0,0,0,.29-.1.39.39,0,0,0,.19-.38Z"/><path d="M83.81,26.88a8.2,8.2,0,0,1-1.06,2.33A6.51,6.51,0,0,1,81,30.77a1.23,1.23,0,0,1-.46.22.26.26,0,0,0-.22.12,1.47,1.47,0,0,0-.1.29A14.61,14.61,0,0,1,79,34.61a7,7,0,0,1-2,2.45,4.61,4.61,0,0,1-2.69.91,4.33,4.33,0,0,1-1.61-.34,4,4,0,0,1-1.37-.86l-.19-.19a16.11,16.11,0,0,1-1.75-2.71,5.76,5.76,0,0,1-.6-2.57,17.23,17.23,0,0,1,.67-4.75,14.22,14.22,0,0,1,2-4.22,4,4,0,0,1,1.9-1.44A7.11,7.11,0,0,1,76,20.4a3.68,3.68,0,0,1,3.22,1.68,8.61,8.61,0,0,1,1.1,3.79q.1.82.1,3v.91q.1.43.43.43l.19,0a1.47,1.47,0,0,0,.82-.38,5.71,5.71,0,0,0,1.44-1.87,1.73,1.73,0,0,0,.24-.46l.1-.26ZM76.13,21a.83.83,0,0,0-.67.29q-.14.24-.84,1.3a9.73,9.73,0,0,0-1.08,2.16,12.83,12.83,0,0,0-.67,4.75,7.55,7.55,0,0,0,.24,1.25l.19,1.3a6.08,6.08,0,0,0,1.2,2.78A3.15,3.15,0,0,0,76.13,36a.93.93,0,0,0,1-.34l.43-.62a8.87,8.87,0,0,0,1.3-3.31,2,2,0,0,0,0-.48.6.6,0,0,0-.17-.48,1.9,1.9,0,0,0-.6-.29l-.22-.1-.26-.1A2.63,2.63,0,0,1,76.08,28Q76,27,76,26.5A7.22,7.22,0,0,1,77.38,22q.38-.43-.24-.77A2.46,2.46,0,0,0,76.13,21Zm3.07,6.19A26.31,26.31,0,0,0,78.92,24a5.39,5.39,0,0,0-.43-1.2.37.37,0,0,0-.26-.17.25.25,0,0,0-.26.12,3.2,3.2,0,0,0-.67,1.2A8.19,8.19,0,0,0,77,26.11a4.34,4.34,0,0,0,0,.77,5.48,5.48,0,0,0,.38,1.58,2,2,0,0,0,1.15,1.15.33.33,0,0,0,.36,0,.53.53,0,0,0,.22-.31,4.55,4.55,0,0,0,.1-1.06A7.23,7.23,0,0,0,79.2,27.22Z"/><path d="M104.21,29.81c0-.19.1-.26.22-.22s.15.17.12.36a47.32,47.32,0,0,1-1.25,4.92,29,29,0,0,1-1.68,4.39A10.49,10.49,0,0,1,100,41.71a3.6,3.6,0,0,1-2.93,1.54,5.92,5.92,0,0,1-5-3.5l-.34-.67a2.27,2.27,0,0,1-.24-.67.79.79,0,0,0-.38-.58.62.62,0,0,0-.65,0,3.7,3.7,0,0,1-.65.22,10.53,10.53,0,0,1-1.73.14q-3.5,0-4.13-2a24.3,24.3,0,0,1-.82-3.1,15.07,15.07,0,0,1-.24-2.71,33.24,33.24,0,0,1,.72-5.9,1.69,1.69,0,0,1,.48-.91,4.85,4.85,0,0,1,1-.74l.82-.46a.53.53,0,0,1,.36-.07l.26,0a.71.71,0,0,1,.34.19.46.46,0,0,1,.14.34v.14a5.1,5.1,0,0,0-.19,1.49q0,.67,0,1.18c0,.34.06.63.1.89l.14,2.16q.14,2,.31,3.38a13.67,13.67,0,0,0,.6,2.66,3.16,3.16,0,0,0,.34.67,1.41,1.41,0,0,0,.91.58q.38,0,.82-.62A7.94,7.94,0,0,0,91,32.88q.43-1.92.58-2.93.1-.77.19-2.3A3,3,0,0,1,92,26.4a.6.6,0,0,1,.62-.34q.43.1.43.38.1,1.34.1,2l0,1.82q0,.53,0,1.63,0,2.3.24,5.18a8.75,8.75,0,0,0,1.15,3.65,3.06,3.06,0,0,0,2.11,1.54,5.74,5.74,0,0,0,.86.1,2.35,2.35,0,0,0,1.73-.58,13.39,13.39,0,0,0,2-3,19.08,19.08,0,0,0,1.25-3.17l.43-1.34q.19-.53.67-2.26Z"/><path d="M115.73,12.48a1,1,0,0,0,.34-.67q0-.58-.86-.89a5.47,5.47,0,0,0-1.87-.31,3.06,3.06,0,0,0-1,.1q-2,.67-3,1.06a12.8,12.8,0,0,1-1.92.67.79.79,0,0,0-.43.1.51.51,0,0,0-.36.17,1.26,1.26,0,0,0-.12.41V15q0,.82,0,2.45t0,4.61q0,1.87-.19,5.62l0,1.3q-.1,1.73-.1,2.54a2,2,0,0,0,0,.48q.1,1.1.1,3.41,0,.58,0,1.68t.24,3.41a3.91,3.91,0,0,0,1,2.21,1.76,1.76,0,0,0,1.44.53,4.23,4.23,0,0,0,1.56-.31,2.42,2.42,0,0,0,1.13-.79,19.73,19.73,0,0,0,2.5-3.67,22.1,22.1,0,0,0,1.82-4.2q.19-.67.48-2.21l.34-1.54.19-.82c.1,0,.14,0,.14.1v.43a7.46,7.46,0,0,1-.29,2.06,24.08,24.08,0,0,1-2.16,6.48,12.86,12.86,0,0,1-2.54,3.7A5.45,5.45,0,0,1,109.15,44a8.91,8.91,0,0,1-1.82.24q-5.14,0-5.14-8.74l0-3.46q0-1.15,0-3.41l0-1.2q.1-1.44.1-2.16a12.89,12.89,0,0,1,.1-1.34q0-.86,0-2.28t0-2.81l.1-5.09a.78.78,0,0,0-.1-.46.7.7,0,0,0-.43-.17,1.49,1.49,0,0,0-.53,0,3,3,0,0,1-.48,0,.82.82,0,0,1-.34,0q-1.34-.24-3.12-.72a12.37,12.37,0,0,1-2.64-1q-1.82-1.05-1.82-2a4.38,4.38,0,0,1,0-.77,1.65,1.65,0,0,1,.5-.41,1.36,1.36,0,0,1,.65-.17,1,1,0,0,1,.72.29A1.76,1.76,0,0,1,96,9.7c0,.06-.07.18-.22.34a.68.68,0,0,0-.22.38.52.52,0,0,0,.24.38,3.81,3.81,0,0,0,1.63.48,4.61,4.61,0,0,0,.86,0q1,0,2.38-.1a7.39,7.39,0,0,0,1.56-.19l.31,0a.34.34,0,0,0,.24-.12,1.12,1.12,0,0,0,.07-.53,5,5,0,0,1,.48-2,1.06,1.06,0,0,0,.19-.46,3,3,0,0,1,.1-.41.85.85,0,0,1,.34-.6,3.12,3.12,0,0,1,1-.41l.46-.14a1.92,1.92,0,0,1,.55-.1,1.24,1.24,0,0,1,.38,0l.17.12a.2.2,0,0,1,.12.17l0,.1a3.92,3.92,0,0,0-.1,1q0,.53.1,1.58a3.09,3.09,0,0,0,0,.79.23.23,0,0,0,.24.22s.3-.1.82-.29a13,13,0,0,1,4.18-.91,5.55,5.55,0,0,1,2,.34,6.23,6.23,0,0,0,.79.31,3.17,3.17,0,0,1,.84.41,4.23,4.23,0,0,1,1.15,1l.24.34a1.48,1.48,0,0,1,.48,1.15,2.25,2.25,0,0,1-.14.84c-.1.24-.21.38-.34.41a2.6,2.6,0,0,1-.58.1.9.9,0,0,1-.48-.1.65.65,0,0,1-.43-.62V13.1A2.27,2.27,0,0,1,115.73,12.48Z"/></svg>