<svg id="Layer_1" data-name="Layer 1" xmlns="http://www.w3.org/2000/svg" viewBox="0 0 360.67 78"><title>Artboard 3@1x</title><path d="M31.09,42.63l0-1a.34.34,0,0,0-.1-.25c-.1-.07-.18,0-.25.1l-.95,1.2a9.3,9.3,0,0,1-2.65,2.8,5.86,5.86,0,0,1-3.35,1,6.2,6.2,0,0,1-1.3-.15,4,4,0,0,1-2.85-2.6,7.06,7.06,0,0,1-.45-2.1,11.38,11.38,0,0,1,.55-4.2,9.29,9.29,0,0,0,.35-1,37.54,37.54,0,0,1,7.2-10.85,9.64,9.64,0,0,1,2.95-2,3.08,3.08,0,0,1,1.15-.3h.2a1.59,1.59,0,0,1,.8.2,1.06,1.06,0,0,1,.6,1,.93.93,0,0,1-.2.6,4.21,4.21,0,0,1-.6.7,22.26,22.26,0,0,0-3.9,4.65,38.79,38.79,0,0,0-3.5,6.75,7.81,7.81,0,0,0-.65,3.6,1.82,1.82,0,0,0,.4,1,1.71,1.71,0,0,0,1.3.6,2.11,2.11,0,0,0,1-.25,9.25,9.25,0,0,0,4.1-4.15,14.49,14.49,0,0,0,1.15-3.3q.65-3.15,2.55-9.35A6.3,6.3,0,0,1,35.39,24a2.56,2.56,0,0,1,2-1,2.47,2.47,0,0,1,2.55,2,2.71,2.71,0,0,1,.15.85,3,3,0,0,1-.15.95q-.1.5-.4,1.5-1.75,5.8-2.3,8.55Q37,37.93,36.71,41t-.33,3.85q0,1.1.6,1.1A2.29,2.29,0,0,0,38.54,45a7,7,0,0,0,1.4-1.75q1.2-2.1,1.85-3.1.2-.35.93-1.55T44,36.33s0-.08.1-.15a1.78,1.78,0,0,1,.35-.42.67.67,0,0,1,.45-.17c.2.07.3.3.3.7v.2a3.37,3.37,0,0,1-.25,1.2q-1.05,2.5-1.85,4.13a23.66,23.66,0,0,1-1.85,3.13,14.13,14.13,0,0,1-1.75,2.15,4.86,4.86,0,0,1-3.55,1.65A4.33,4.33,0,0,1,32.51,47,6.62,6.62,0,0,1,31.09,42.63Z"/><path d="M48,37v2.6c0,.3,0,.67,0,1.1s0,1,0,1.55a6.93,6.93,0,0,1-.35,2.2,3.73,3.73,0,0,1-.65,1.2,2.28,2.28,0,0,1-1.7.8,1.88,1.88,0,0,1-1.1-.35,2.48,2.48,0,0,1-.8-1,4.62,4.62,0,0,1-.45-2.5q.2-2,.2-3,.65-6.7.65-10.8,0-1.55-.05-2.35a12.12,12.12,0,0,1,.15-3.05,4.6,4.6,0,0,1,.2-.75A1.06,1.06,0,0,1,45.14,22a1.25,1.25,0,0,1,.9.4,1.93,1.93,0,0,1,.75,1L47,24a.28.28,0,0,0,.2.1.16.16,0,0,0,.15-.1,12,12,0,0,1,1.6-1.6,5.65,5.65,0,0,1,3.75-1.45,3.55,3.55,0,0,1,3,1.65,5.33,5.33,0,0,1,.75,1.8,18,18,0,0,1,.4,3.7,3.79,3.79,0,0,1-.65,1.8.87.87,0,0,1-.75.5,1,1,0,0,1-.75-.35,3.1,3.1,0,0,1-.85-1.45q-.05-.5-.17-1.23t-.18-1.22A6.1,6.1,0,0,0,53,24.58c-.2-.43-.47-.65-.8-.65H52a3,3,0,0,0-2,1.1,7.94,7.94,0,0,0-1.35,2.4,19.28,19.28,0,0,0-.7,4.35,5.9,5.9,0,0,0,0,.9q0,1,0,1.67t0,1.23V37Z"/><path d="M57,40.93q0-2.9-.05-9,.1-2.3.2-3.55l.1-1.8L58,16.43l.2-2.15c0-.3-.08-.45-.25-.45l-.25,0-2.9,1-2.7,1-.22.1a.61.61,0,0,1-.23,0c-.33.07-.52,0-.55-.2a.48.48,0,0,1,.1-.6.92.92,0,0,1,.4-.3l.35-.15Q54,14,57.49,13l.4-.1a.6.6,0,0,0,.5-.6q.4-2.3.55-3.45,0-.3.18-.9a6.86,6.86,0,0,1,.27-1,3.43,3.43,0,0,1,.45-.8,1.26,1.26,0,0,1,1-.6l.25,0a1.17,1.17,0,0,1,1,.9,4.25,4.25,0,0,1,.1.75v.2l.1,3c0,.13,0,.33,0,.6a2.56,2.56,0,0,0,0,.65q.1.3.3.3h.1l3.45-.5.42-.1a2.45,2.45,0,0,1,.52,0,.41.41,0,0,1,.15.25.11.11,0,0,1,0,.13.33.33,0,0,1-.08.13l-.25.1a1.12,1.12,0,0,1-.35,0q-2.7.6-3.35.7a2.08,2.08,0,0,0-.87.22,1,1,0,0,0-.12.63v.25q-.05,1.2-.05,3.55,0,3.2.05,4.8.2,10.7.2,16,0,2.35.15,4.7a5.7,5.7,0,0,1-.8,3,2.18,2.18,0,0,1-.77.9,1.89,1.89,0,0,1-1,.3,2,2,0,0,1-1.6-.8,3.92,3.92,0,0,1-1.2-2.65,13.34,13.34,0,0,1-.1-1.35Z"/><path d="M95.74,36.48a5,5,0,0,0,3.42-1.57,14.75,14.75,0,0,0,2.58-3.08.73.73,0,0,1,.33-.25,1.1,1.1,0,0,0,.27-.15.36.36,0,0,1,.32.08.35.35,0,0,1,.18.28v.1a3.34,3.34,0,0,1-.25.6l-1.4,1.75-1.25,1.5a6.84,6.84,0,0,1-3.8,2.5,3.88,3.88,0,0,0-.67.2.65.65,0,0,0-.33.45q-.1.35-.15.55l-.6,1.9a10.49,10.49,0,0,1-2,3.6q-2.7,2.75-5.45,2.75a5.1,5.1,0,0,1-3.3-1.22,8.33,8.33,0,0,1-2.4-3.58,18.24,18.24,0,0,1-.9-4.65q-.1-1.5-.1-2.25a38.08,38.08,0,0,1,.9-7.85,17.11,17.11,0,0,1,1.2-3.3,6.89,6.89,0,0,1,.85-1.45q.5-.65,1.35-1.55a1.2,1.2,0,0,1,.65-.4,1.34,1.34,0,0,1,.6-.15.82.82,0,0,1,.6.25,1.08,1.08,0,0,1,.3.65,3.44,3.44,0,0,1-.2,1.3,10.5,10.5,0,0,1-.6,2,14.93,14.93,0,0,0-.75,2.65q-.25,1.35-.45,3.2-.05.6,0,1.85a31.62,31.62,0,0,0,.85,7.2,9.29,9.29,0,0,0,.9,2.55,1.39,1.39,0,0,0,1.35.8,4.2,4.2,0,0,0,2.95-1.15A13.11,13.11,0,0,0,93,38.68a.36.36,0,0,0-.2-.4l-.2-.05a5.34,5.34,0,0,1-2.42-1.67,6.9,6.9,0,0,1-1.37-2.72,17.29,17.29,0,0,1-.5-4.3,15.05,15.05,0,0,1,.77-5.1q.77-2.15,2-2.15a2.47,2.47,0,0,1,1.8,1,6.24,6.24,0,0,1,1.1,1.8,13.82,13.82,0,0,1,1.25,4.4,39.8,39.8,0,0,1,.4,4.6q0,.65-.1,1.85A.69.69,0,0,0,95.74,36.48Zm-1.5-2.9q.1-1.1.1-1.65a16.37,16.37,0,0,0-.43-3.72,10.73,10.73,0,0,0-1.1-3q-.68-1.15-1.28-1.15-.85,0-1.2,2.2a18.7,18.7,0,0,0-.4,4,9.63,9.63,0,0,0,.6,3.2,3.36,3.36,0,0,0,.65,1.3,3.41,3.41,0,0,0,2.15,1.6.61.61,0,0,0,.4,0,.36.36,0,0,0,.15-.25,11,11,0,0,0,.23-1.47Q94.19,33.93,94.24,33.58Z"/><path d="M100.89,52.43q.05-2.7.3-5.87t.55-6.17q.2-2,.25-3a102.84,102.84,0,0,1,1.55-11.85q.75-4.5,1.15-6.5a45.52,45.52,0,0,1,2-6.7,10.12,10.12,0,0,1,.45-1l.45-.87a2.09,2.09,0,0,1,.7-.75,1.07,1.07,0,0,1,.55-.1,2.34,2.34,0,0,1,1.27.4,1.34,1.34,0,0,1,.67,1l0,.75q-.2,2.15-.7,4.7l-.3,1.8-1.85,10.1q-.4,2.35-.65,5.25-.2,2.25-.5,6.75a2.76,2.76,0,0,0,0,.78c0,.12.15.17.35.17a3.12,3.12,0,0,0,.6,0q2-.2,3-.4A13.84,13.84,0,0,0,115,39l2.15-1.45.45-.3a1.58,1.58,0,0,1,.55-.2c.1,0,.15,0,.15.1a.48.48,0,0,1-.07.5c-.12.13-.18.22-.18.25a16.71,16.71,0,0,1-9.1,5l-.85.13a6.76,6.76,0,0,0-.9.18,1,1,0,0,0-.55.2.69.69,0,0,0-.15.5v.2l.15.7.45,1a43.36,43.36,0,0,1,3.85,12,13.28,13.28,0,0,1,.2,2.45,12.66,12.66,0,0,1-.45,3.35,7.52,7.52,0,0,1-1.5,2.7,4.44,4.44,0,0,1-1.25,1.1,3.5,3.5,0,0,1-1.8.5,3.59,3.59,0,0,1-2.6-1.15,7.47,7.47,0,0,1-1.75-3.1,23.9,23.9,0,0,1-.65-3.15,41,41,0,0,1-.25-5.3v-2.8Zm8.4,7.45c0-.17,0-.47,0-.92a9.82,9.82,0,0,0-.15-1.17,26.54,26.54,0,0,0-1.05-4.1q-.4-1.15-.9-2.25l-.65-1.65c-.07-.17-.15-.2-.25-.1s-.06,0-.08.08a.4.4,0,0,0,0,.13l.1,1.55.3,3.2.15,2.25a50.78,50.78,0,0,0,.55,5.9,1.31,1.31,0,0,1,0,.4,2.1,2.1,0,0,1-.3,1.1.52.52,0,0,1-.2.35.2.2,0,0,0,.05.22.31.31,0,0,0,.25.13,1.1,1.1,0,0,0,.95-.5,4.66,4.66,0,0,0,1-2A9.29,9.29,0,0,0,109.29,59.88Z"/><path d="M142.69,42.63l0-1a.34.34,0,0,0-.1-.25c-.1-.07-.18,0-.25.1l-.95,1.2a9.3,9.3,0,0,1-2.65,2.8,5.86,5.86,0,0,1-3.35,1,6.2,6.2,0,0,1-1.3-.15,4,4,0,0,1-2.85-2.6,7.06,7.06,0,0,1-.45-2.1,11.38,11.38,0,0,1,.55-4.2,9.29,9.29,0,0,0,.35-1,37.54,37.54,0,0,1,7.2-10.85,9.64,9.64,0,0,1,2.95-2,3.08,3.08,0,0,1,1.15-.3h.2a1.59,1.59,0,0,1,.8.2,1.06,1.06,0,0,1,.6,1,.93.93,0,0,1-.2.6,4.21,4.21,0,0,1-.6.7,22.26,22.26,0,0,0-3.9,4.65,38.79,38.79,0,0,0-3.5,6.75,7.81,7.81,0,0,0-.65,3.6,1.82,1.82,0,0,0,.4,1,1.71,1.71,0,0,0,1.3.6,2.11,2.11,0,0,0,1-.25,9.25,9.25,0,0,0,4.1-4.15,14.49,14.49,0,0,0,1.15-3.3q.65-3.15,2.55-9.35A6.3,6.3,0,0,1,147,24a2.56,2.56,0,0,1,2-1,2.47,2.47,0,0,1,2.55,2,2.71,2.71,0,0,1,.15.85,3,3,0,0,1-.15.95q-.1.5-.4,1.5-1.75,5.8-2.3,8.55-.2,1.15-.52,4.25T148,44.88q0,1.1.6,1.1a2.29,2.29,0,0,0,1.55-.95,7,7,0,0,0,1.4-1.75q1.2-2.1,1.85-3.1.2-.35.93-1.55t1.27-2.3s0-.08.1-.15a1.78,1.78,0,0,1,.35-.42.67.67,0,0,1,.45-.17c.2.07.3.3.3.7v.2a3.37,3.37,0,0,1-.25,1.2q-1.05,2.5-1.85,4.13a23.66,23.66,0,0,1-1.85,3.13,14.13,14.13,0,0,1-1.75,2.15,4.86,4.86,0,0,1-3.55,1.65,4.33,4.33,0,0,1-3.43-1.7A6.62,6.62,0,0,1,142.69,42.63Z"/><path d="M155.24,40.93q0-2.9-.05-9,.1-2.3.2-3.55l.1-1.8.75-10.15.2-2.15c0-.3-.08-.45-.25-.45l-.25,0-2.9,1-2.7,1-.22.1a.61.61,0,0,1-.23,0c-.33.07-.52,0-.55-.2a.48.48,0,0,1,.1-.6.92.92,0,0,1,.4-.3l.35-.15q2.1-.85,5.55-1.9l.4-.1a.6.6,0,0,0,.5-.6q.4-2.3.55-3.45,0-.3.18-.9a6.86,6.86,0,0,1,.27-1,3.43,3.43,0,0,1,.45-.8,1.26,1.26,0,0,1,1-.6l.25,0a1.17,1.17,0,0,1,1,.9,4.25,4.25,0,0,1,.1.75v.2l.1,3c0,.13,0,.33,0,.6a2.56,2.56,0,0,0,0,.65q.1.3.3.3h.1l3.45-.5.42-.1a2.45,2.45,0,0,1,.52,0,.41.41,0,0,1,.15.25.11.11,0,0,1,0,.13.33.33,0,0,1-.08.13l-.25.1a1.12,1.12,0,0,1-.35,0q-2.7.6-3.35.7a2.08,2.08,0,0,0-.87.22,1,1,0,0,0-.12.63v.25q-.05,1.2-.05,3.55,0,3.2.05,4.8.2,10.7.2,16,0,2.35.15,4.7a5.7,5.7,0,0,1-.8,3,2.18,2.18,0,0,1-.77.9,1.89,1.89,0,0,1-1,.3,2,2,0,0,1-1.6-.8,3.92,3.92,0,0,1-1.2-2.65,13.34,13.34,0,0,1-.1-1.35Z"/><path d="M163.94,40.93q0-2.9-.05-9,.1-2.3.2-3.55l.1-1.8.75-10.15.2-2.15c0-.3-.08-.45-.25-.45l-.25,0-2.9,1L159,16l-.22.1a.61.61,0,0,1-.23,0c-.33.07-.52,0-.55-.2a.48.48,0,0,1,.1-.6.92.92,0,0,1,.4-.3l.35-.15Q161,14,164.44,13l.4-.1a.6.6,0,0,0,.5-.6q.4-2.3.55-3.45,0-.3.18-.9a6.86,6.86,0,0,1,.27-1,3.43,3.43,0,0,1,.45-.8,1.26,1.26,0,0,1,1-.6l.25,0a1.17,1.17,0,0,1,1,.9,4.25,4.25,0,0,1,.1.75v.2l.1,3c0,.13,0,.33,0,.6a2.56,2.56,0,0,0,0,.65q.1.3.3.3h.1l3.45-.5.42-.1a2.45,2.45,0,0,1,.52,0,.41.41,0,0,1,.15.25.11.11,0,0,1,0,.13.33.33,0,0,1-.08.13l-.25.1a1.12,1.12,0,0,1-.35,0q-2.7.6-3.35.7a2.08,2.08,0,0,0-.87.22,1,1,0,0,0-.12.63v.25q-.05,1.2-.05,3.55,0,3.2.05,4.8.2,10.7.2,16,0,2.35.15,4.7a5.7,5.7,0,0,1-.8,3,2.18,2.18,0,0,1-.77.9,1.89,1.89,0,0,1-1,.3,2,2,0,0,1-1.6-.8,3.92,3.92,0,0,1-1.2-2.65,13.34,13.34,0,0,1-.1-1.35Z"/><path d="M177,37v2.6c0,.3,0,.67,0,1.1s0,1,0,1.55a6.93,6.93,0,0,1-.35,2.2,3.73,3.73,0,0,1-.65,1.2,2.28,2.28,0,0,1-1.7.8,1.88,1.88,0,0,1-1.1-.35,2.48,2.48,0,0,1-.8-1,4.62,4.62,0,0,1-.45-2.5q.2-2,.2-3,.65-6.7.65-10.8,0-1.55-.05-2.35a12.12,12.12,0,0,1,.15-3.05,4.6,4.6,0,0,1,.2-.75,1.06,1.06,0,0,1,1.05-.75,1.25,1.25,0,0,1,.9.4,1.93,1.93,0,0,1,.75,1L176,24a.28.28,0,0,0,.2.1.16.16,0,0,0,.15-.1,12,12,0,0,1,1.6-1.6,5.65,5.65,0,0,1,3.75-1.45,3.55,3.55,0,0,1,3,1.65,5.33,5.33,0,0,1,.75,1.8,18,18,0,0,1,.4,3.7,3.79,3.79,0,0,1-.65,1.8.87.87,0,0,1-.75.5,1,1,0,0,1-.75-.35,3.1,3.1,0,0,1-.85-1.45q-.05-.5-.17-1.23t-.18-1.22a6.1,6.1,0,0,0-.45-1.55c-.2-.43-.47-.65-.8-.65H181a3,3,0,0,0-2,1.1,7.94,7.94,0,0,0-1.35,2.4,19.28,19.28,0,0,0-.7,4.35,5.9,5.9,0,0,0,0,.9q0,1,0,1.67t0,1.23V37Z"/><path d="M196.89,42.63l0-1a.34.34,0,0,0-.1-.25c-.1-.07-.18,0-.25.1l-.95,1.2a9.3,9.3,0,0,1-2.65,2.8,5.86,5.86,0,0,1-3.35,1,6.2,6.2,0,0,1-1.3-.15,4,4,0,0,1-2.85-2.6,7.06,7.06,0,0,1-.45-2.1,11.38,11.38,0,0,1,.55-4.2,9.29,9.29,0,0,0,.35-1,37.54,37.54,0,0,1,7.2-10.85,9.64,9.64,0,0,1,2.95-2,3.08,3.08,0,0,1,1.15-.3h.2a1.59,1.59,0,0,1,.8.2,1.06,1.06,0,0,1,.6,1,.93.93,0,0,1-.2.6,4.21,4.21,0,0,1-.6.7,22.26,22.26,0,0,0-3.9,4.65,38.79,38.79,0,0,0-3.5,6.75,7.81,7.81,0,0,0-.65,3.6,1.82,1.82,0,0,0,.4,1,1.71,1.71,0,0,0,1.3.6,2.11,2.11,0,0,0,1-.25,9.25,9.25,0,0,0,4.1-4.15,14.49,14.49,0,0,0,1.15-3.3q.65-3.15,2.55-9.35a6.3,6.3,0,0,1,.75-1.45,2.56,2.56,0,0,1,2-1,2.47,2.47,0,0,1,2.55,2,2.71,2.71,0,0,1,.15.85,3,3,0,0,1-.15.95q-.1.5-.4,1.5-1.75,5.8-2.3,8.55-.2,1.15-.52,4.25t-.33,3.85q0,1.1.6,1.1a2.29,2.29,0,0,0,1.55-.95,7,7,0,0,0,1.4-1.75q1.2-2.1,1.85-3.1.2-.35.93-1.55t1.27-2.3s0-.08.1-.15a1.78,1.78,0,0,1,.35-.42.67.67,0,0,1,.45-.17c.2.07.3.3.3.7v.2a3.37,3.37,0,0,1-.25,1.2q-1.05,2.5-1.85,4.13A23.66,23.66,0,0,1,207,44.93a14.13,14.13,0,0,1-1.75,2.15,4.86,4.86,0,0,1-3.55,1.65,4.33,4.33,0,0,1-3.43-1.7A6.62,6.62,0,0,1,196.89,42.63Z"/><path d="M221.59,31.88a.81.81,0,0,1,.17-.45,3.33,3.33,0,0,0,.23-.35,7.57,7.57,0,0,0,1-3.55,4.45,4.45,0,0,0-.2-1.4,1.42,1.42,0,0,0-1.3-1,2.43,2.43,0,0,0-.55,0,2.62,2.62,0,0,0-1.6.8,7.38,7.38,0,0,0-1.45,1.75,25.23,25.23,0,0,0-3,8.4,11.53,11.53,0,0,0-.25,2.25q0,.4.1,1.3a9.27,9.27,0,0,0,.65,2.1,1.91,1.91,0,0,0,1.95,1.3,4.73,4.73,0,0,0,2.05-.45,10.17,10.17,0,0,0,3.75-2.8q1.3-1.5,1.9-2.3a10.51,10.51,0,0,0,1-1.45,2.08,2.08,0,0,1,.4-.55.55.55,0,0,1,.35-.2q.1,0,.1,0a.27.27,0,0,1,0,.22.62.62,0,0,0,0,.23,11.33,11.33,0,0,0-.4,1.1,22.61,22.61,0,0,1-1,2.45,17.84,17.84,0,0,1-1.6,3,9.75,9.75,0,0,1-6.35,4.15,8.19,8.19,0,0,1-1,.1,7.26,7.26,0,0,1-5.45-2.7,5.58,5.58,0,0,1-1-2.1,14.39,14.39,0,0,1-.4-3.5q0-.65.1-2a20.48,20.48,0,0,1,1.75-6.15,34.54,34.54,0,0,1,1.95-3.6,11.14,11.14,0,0,1,2.65-2.9A6.87,6.87,0,0,1,220.69,22a4.89,4.89,0,0,1,1.65.35,3.5,3.5,0,0,1,2,2.65,6,6,0,0,1,.15,1.35,8.26,8.26,0,0,1-1.25,4.15A4.89,4.89,0,0,1,222,31.83a.42.42,0,0,0-.17.08A.24.24,0,0,1,221.59,31.88Z"/><path d="M226.78,40.93q0-2.9-.05-9,.1-2.3.2-3.55l.1-1.8.75-10.15.2-2.15c0-.3-.08-.45-.25-.45l-.25,0-2.9,1-2.7,1-.22.1a.61.61,0,0,1-.23,0c-.33.07-.52,0-.55-.2a.48.48,0,0,1,.1-.6.92.92,0,0,1,.4-.3l.35-.15q2.1-.85,5.55-1.9l.4-.1a.6.6,0,0,0,.5-.6q.4-2.3.55-3.45,0-.3.18-.9a6.86,6.86,0,0,1,.27-1,3.43,3.43,0,0,1,.45-.8,1.26,1.26,0,0,1,1-.6l.25,0a1.17,1.17,0,0,1,1,.9,4.25,4.25,0,0,1,.1.75v.2l.1,3c0,.13,0,.33,0,.6a2.56,2.56,0,0,0,0,.65q.1.3.3.3h.1l3.45-.5.42-.1a2.45,2.45,0,0,1,.52,0,.41.41,0,0,1,.15.25.11.11,0,0,1,0,.13.33.33,0,0,1-.08.13l-.25.1a1.12,1.12,0,0,1-.35,0q-2.7.6-3.35.7a2.08,2.08,0,0,0-.87.22,1,1,0,0,0-.12.63v.25q-.05,1.2-.05,3.55,0,3.2.05,4.8.2,10.7.2,16,0,2.35.15,4.7a5.7,5.7,0,0,1-.8,3,2.18,2.18,0,0,1-.77.9,1.89,1.89,0,0,1-1,.3,2,2,0,0,1-1.6-.8,3.92,3.92,0,0,1-1.2-2.65,13.34,13.34,0,0,1-.1-1.35Z"/><path d="M236,41.93a45.22,45.22,0,0,1-.4-5.1l0-1.9a88.6,88.6,0,0,1,.9-11.4q.1-.75.4-2.25a3.4,3.4,0,0,1,.5-1.1,1.57,1.57,0,0,1,1.3-.65h.25a1.55,1.55,0,0,1,1.2,1.15,1.67,1.67,0,0,1,.15.75l-.05.45a63.63,63.63,0,0,0-.35,6.9q0,2.35.05,3.5a50.55,50.55,0,0,0,.5,5.65q0,.35.15,1.33a16.63,16.63,0,0,0,.33,2,6.23,6.23,0,0,0,.77,1.9,1,1,0,0,0,.9.65q.85,0,1.83-1.55a44,44,0,0,0,2.17-4q.45-.95.83-1.62t.52-.57q.35.3-.52,2.57a30.39,30.39,0,0,1-2.28,4.63,8.94,8.94,0,0,1-2.55,3.05,3.72,3.72,0,0,1-2,.65,3.65,3.65,0,0,1-2.78-1.37A7.91,7.91,0,0,1,236,41.93Zm3.55-29.65a1.32,1.32,0,0,1,0,.4,1.38,1.38,0,0,1-.35,1,1,1,0,0,1-.9.32,4.52,4.52,0,0,0-.8.05,1.23,1.23,0,0,1-.7,0q-.65-.2-.65-.75a.7.7,0,0,1,.05-.3l.35-1.15a1.67,1.67,0,0,1,1.2-1.15.75.75,0,0,1,.7.15A4.47,4.47,0,0,1,239.53,12.28Z"/><path d="M251.78,32.33l.35-1.3q.35-1.1.8-2.75a19,19,0,0,1,2.15-4.5,4.61,4.61,0,0,1,3-2,1.53,1.53,0,0,1,.45-.05,2.54,2.54,0,0,1,1.85.8,9.94,9.94,0,0,1,1.3,1.95,17.1,17.1,0,0,1,1.15,6.6,42.54,42.54,0,0,1-.7,7.15q-.2,1.25-.25,1.75c0,.27-.11.76-.22,1.48a16.13,16.13,0,0,1-.43,1.92,20.53,20.53,0,0,1-.85,2.1,1.41,1.41,0,0,1-1.3,1,1.47,1.47,0,0,1-1.55-.85,4.65,4.65,0,0,1-.5-2.2q0-.95,0-3,.75-8.35.8-13.45,0-.5-.05-1.15c0-.43-.07-.77-.1-1s-.13-.45-.3-.45l-.35.1a2.87,2.87,0,0,0-.85.6,7.49,7.49,0,0,0-.75,1.15,17.19,17.19,0,0,0-.95,2.2l-1.05,3.35q-.8,2.6-1.25,3.9a10.74,10.74,0,0,0-.45,3.1,25.58,25.58,0,0,1-.4,5.85L251,46a2.1,2.1,0,0,1-.75,1,2.08,2.08,0,0,1-1.25.5,1.82,1.82,0,0,1-1.55-.85,3.32,3.32,0,0,1-.5-1.8v-1.8q.3-3.9.4-6,.1-2.8.1-4.25l0-2.15.1-3.85a8.26,8.26,0,0,1,.5-2.3,3,3,0,0,1,.43-.78.82.82,0,0,1,.67-.28,1.53,1.53,0,0,1,1.25.9,3.26,3.26,0,0,1,.55,1.25q.1.55.2,1.55l.3,4.45s0,.13,0,.28S251.58,32.2,251.78,32.33Z"/><path d="M354.63,19V20a4.29,4.29,0,0,1-.6,2.15,7.72,7.72,0,0,1-3.2,3.25,28.44,28.44,0,0,1-7.65,3l-1.25.3q-.4.1-2,.42a30.39,30.39,0,0,1-3,.48l-2.15.15q-5.4.4-8.15.5-1.5.05-4.5.25-2.75.25-8.5.45l-2.2.1q-2.65.1-5.15.3a24.74,24.74,0,0,0-2.65.25l-5.2.7a49.38,49.38,0,0,0-7.6,1.5,30,30,0,0,0-8.35,3.55q0,1.4.2,4.2,0,.7.1,2.1l.75,10.8q.15,1.95.35,5.85t.15,5.85a8.1,8.1,0,0,1-3,6,5.47,5.47,0,0,1-3.8,1.45,6.29,6.29,0,0,1-6-3.85,2,2,0,0,0-.2-.45,9.22,9.22,0,0,1-1-4.65,12.92,12.92,0,0,1,3.6-9,8.38,8.38,0,0,1,1.25-1,4.5,4.5,0,0,1,2.45-.75h.2c.17,0,.28,0,.33-.12a1.19,1.19,0,0,0,.08-.53,3.3,3.3,0,0,0-.05-.7l-.75-11a.7.7,0,0,1,0-.3l-.15-.15-.15,0a1.43,1.43,0,0,0-.15.2l-.2.25a13.06,13.06,0,0,1-5.8,4.85,4.84,4.84,0,0,1-1.15.45,4.76,4.76,0,0,1-1.4.2,4,4,0,0,1-2.67-1A4.47,4.47,0,0,1,264,43.58a8.59,8.59,0,0,1-.2-2,6.6,6.6,0,0,1,.25-2q.85-3.65,1.77-6.5a29,29,0,0,1,2.38-5.4,23,23,0,0,1,2.9-4,9.72,9.72,0,0,1,3.15-2.05,2.32,2.32,0,0,1,.95-.2,2.69,2.69,0,0,1,1.5.5,1.16,1.16,0,0,1,.55.95,1,1,0,0,1-.55.9,11.73,11.73,0,0,0-4.85,5.7,55.17,55.17,0,0,0-3,9.1l-.3,1.5a9.25,9.25,0,0,0-.2,1.8,3,3,0,0,0,.45,1.55,1.63,1.63,0,0,0,1.2.7l.45.05a2.79,2.79,0,0,0,1.4-.4,8.69,8.69,0,0,0,2.65-2,29.1,29.1,0,0,0,2.25-3,1.88,1.88,0,0,0,.2-1q0-1.95.15-3.9a30.13,30.13,0,0,1,1.7-7.1,4.09,4.09,0,0,1,.65-1.2,3.3,3.3,0,0,1,1.45-1.1,2.82,2.82,0,0,1,.9-.15,2.42,2.42,0,0,1,1.47.5,2.26,2.26,0,0,1,.88,1.3,2.82,2.82,0,0,1,.1.85,6.89,6.89,0,0,1-.2,1.3l-.6,2a24.57,24.57,0,0,0-1,6.5,13.79,13.79,0,0,1,1.45-.85,35.66,35.66,0,0,1,11.2-3.9l3.7-.6,2.1-.3a92.16,92.16,0,0,1,9.45-1l10.2-.4,1.78-.1c.68,0,1.21,0,1.57,0l3.3-.15,7.5-.5a38.14,38.14,0,0,0,7.35-1.1,31.4,31.4,0,0,0,8.35-3.1,7.91,7.91,0,0,0,2.8-2.65,4.35,4.35,0,0,0,.75-2.3,3.85,3.85,0,0,0-.8-2.3A3.51,3.51,0,0,0,350,15.83a6.75,6.75,0,0,0-2.58.5,16.27,16.27,0,0,0-2.62,1.4,1.63,1.63,0,0,1-.25.2c-.1.07-.15.13-.15.2a1.16,1.16,0,0,0,.15.45,1.89,1.89,0,0,1,.15.75,2.11,2.11,0,0,1-.7,1.5,3.77,3.77,0,0,1-.65.55.86.86,0,0,1-.55.2.54.54,0,0,1-.4-.15.92.92,0,0,1-.3-1,3.29,3.29,0,0,1,.55-1.2l.65-1.05q.2-.2,0-.45l-.7-.6a7.31,7.31,0,0,0-2.75-1.35,26.48,26.48,0,0,0-6.6-1,31.88,31.88,0,0,0-3.7.25,41.68,41.68,0,0,0-9,2,1.62,1.62,0,0,1-.65.25,0,0,0,0,1,0,0q0-.1.8-.45a41.35,41.35,0,0,1,11-2.3q.6,0,1.75-.05a33.08,33.08,0,0,1,5.35.5,10.74,10.74,0,0,1,4.1,1.6l1,.8a.3.3,0,0,0,.45,0l.6-.4a9.07,9.07,0,0,1,5-1.75,4.63,4.63,0,0,1,4.2,2.7ZM278.58,64.38q0-.9-.1-2.8l-.3-5,0-.75q-.1-.3-.3-.15a7.65,7.65,0,0,0-2.8,1.85,15.72,15.72,0,0,0-2,2.6,9.08,9.08,0,0,0-1.25,4.65,6.49,6.49,0,0,0,1.8,4.8,3.15,3.15,0,0,0,2.25,1,3,3,0,0,0,1-.15,1.85,1.85,0,0,0,1.35-1.4,9.9,9.9,0,0,0,.3-1.55Q278.58,66,278.58,64.38ZM344,19.63a.92.92,0,0,0,0-.6l-.15-.25-.2.1c-.1.13-.2.28-.3.45l-.35.6a2.86,2.86,0,0,0-.23.33.45.45,0,0,0,.08.58.62.62,0,0,0,.5-.25c.13-.17.23-.28.3-.35A3,3,0,0,0,344,19.63Z"/></svg>