<svg id="Layer_1" data-name="Layer 1" xmlns="http://www.w3.org/2000/svg" viewBox="0 0 3809.24 1289.74"><defs><style>.cls-1{fill:#fff;}</style></defs><title>dadArtboard 1@1x</title><path d="M1953.26,722.12c-2.72-34.57-5.34-71.4-8.77-108.17-.57-6.1-4.63-11.88-7.13-17.79-1.2-2.83-4.33-7-3.45-8.15,2.62-3.42,6.46-7.17,10.43-8,9.93-2.18,20.31-2.23,30.29-4.25,16-3.23,20.1.91,21.07,17.12.83,13.81,5.55,27.34,7.49,41.14,3.17,22.49,5.49,45.11,8.15,67.67.22,1.89.36,3.79.53,5.68,1.84-1.06,4-1.77,5.48-3.23,27.88-28.14,59.14-51.73,98.34-60.28,29.36-6.41,59.21-17.75,89.7-9.3,16.06,4.45,30.94,13.79,45.51,22.36,2.64,1.55,1.19,10.06,1.63,15.36-3.19-1.47-7.07-2.22-9.45-4.52-21.27-20.59-43-15.7-53.56,13.35-18.6,51.14-31.27,103.6-30.24,158.49.19,10.34.87,21.56,5,30.77,11.39,25.66,26.86,27.11,46.06,6.53,18.88-20.23,29.59-44.45,36.39-70.74,6.49-25.08,14.91-49.93,18.39-75.44,3-22.15-.22-45.09.29-67.66.64-27.77,1.32-55.61,3.89-83.24,1.61-17.29,17.08-11.36,27.68-12.53s15,5.43,14.63,14.46c-.73,20.52-1.78,41.08-4,61.48-3.82,35.91-2.55,71.46,5,106.75,3.39,15.87,5.87,32.14,11.41,47.26,3.2,8.73,11.54,15.63,18,22.95.47.53,6-1.64,7-3.64,11.5-23.75,21.61-48.22,34-71.47,15.38-28.85,29.07-59.71,49.9-84.25,23.09-27.2,54-47.21,92.57-48.42,2.65-.08,6.82,1.61,7.71,3.63,1.3,2.93.27,6.89.23,10.41-2.73-.44-5.46-1-8.21-1.28a24.23,24.23,0,0,0-6.73,0c-26.83,5.15-45.65,18.13-52.34,47-4.81,20.71-15.11,40.12-20.15,60.8-9,37.12-6,73.52,6.6,110.26,7.82,22.77,33.32,37,57.2,18.7,27.82-21.31,57.33-41.3,72.63-73.28,11-22.93,16-49,21.71-74.08,6.48-28.31,11-57.09,15.94-85.73,1.29-7.44.86-15.15,1.57-22.7,2-21.76,4-43.54,6.57-65.24.89-7.58-1.61-9.31-8.15-6.78-9.6,3.72-19.11,7.65-28.66,11.49-31.28,12.58-61.46,14.44-90.29-7.19-17.23-12.93-26.29-49.27-18.13-73.46,11.9-35.26,43.17-48.33,75.11-48.58a29.38,29.38,0,0,1,15.1,4.23c2.64,1.66,3.1,6.8,4.54,10.38a88.54,88.54,0,0,0-9.41-.59c-5.39.2-14.17-1.09-15.6,1.51-13.27,24.05-24.18,49.6-18.55,77.68,4.91,24.49,19.05,36.62,45.59,29.51,14.93-4,29.13-10.89,43.32-17.22,2.37-1.06,4.35-5.93,4.29-9-.3-13.4-2.71-26.86-1.94-40.16,1-17.06,4.47-34,6.6-51,2.85-22.7,5.56-45.42,8-68.18.28-2.62-3-5.74-2.46-8.16.8-3.64,3.37-9.7,5.41-9.79a247.71,247.71,0,0,1,35.77,1c14.48,1.46,17.24,11.65,15.49,24-3.17,22.41-7.33,44.72-9.63,67.22-2.16,21.16-2.7,42.5-3.22,63.78-.05,2.19,4.81,6.39,7.48,6.47,27.48.79,55.64-2.64,82.27,2.31,23.2,4.32,46.21,16.16,56,41.56,6.74,17.44-9.63,46-28.27,48.68-5.59.8-11.87-3-17.71-5-.25-.09.19-4.15,1.26-5.72,4.55-6.68,9.82-12.89,14.14-19.71,7.77-12.25.36-20.43-9-26.46-13.28-8.53-26.59-20.08-41.23-22.66-20.57-3.62-42.4-.5-63.64.73-1.92.11-4.86,7.48-4.9,11.51q-.5,59.3-.06,118.62c.17,27.21.4,54.43,1.45,81.62,1.76,45.6,2.47,91.36,7,136.7,2.46,24.34,16.61,45.3,35.54,61.85,7.76,6.78,14.44,7.17,23.62,0,24.12-18.74,31.85-46,36.59-73,6.89-39.22,10.19-79.19,12.94-119,2-28.28.17-56.8,1-85.19.08-2.72,7.56-7.88,10.82-7.32,9.94,1.7,20.79,3.81,28.72,9.4,4.6,3.24,5.61,13.42,5.89,20.57.46,12.13-1.93,24.37-1.36,36.48,1.16,24.55,4.06,49,5.18,73.58s12.15,45.07,25.86,64.37c1.33,1.87,9,2.28,10.27.68,16.3-21.22,34.26-41.65,47.13-64.87a260,260,0,0,0,25.65-68.68c4.39-19.64,2.45-40.82,2.4-61.31-.06-29.18-1-58.36-1.43-87.55-.14-10.27,2.74-17.11,15.42-12.76a22.38,22.38,0,0,0,12.84.49c17.12-5.11,19.27,5.49,19.46,18,.43,29.62.55,59.25.93,88.88,0,3.44,1,6.87,1.49,10.3,1.52-3.13,3.1-6.24,4.54-9.4,17.8-39.09,33.6-79.27,54-116.95,15.43-28.48,46.46-16.65,61.38,3.81,19.12,26.23,20.95,57.35,22.7,88.52,2.67,47.4,5.67,94.81,10.3,142,1.21,12.39,8.39,24.4,13.86,36.1,3.35,7.17,8.74,9.44,13.44.32,14.66-28.45,27.72-57.88,44.48-85a443.37,443.37,0,0,1,51.71-68.41c21.31-23,43.55-46.45,74.67-56.7,10.77-3.55,22.7-4.07,34.18-4.86,8.09-.55,13.31-2.12,13.65-11.65.54-15.19,2.25-30.34,2.74-45.53.24-7.44.69-11.27,10.14-8.7a41.75,41.75,0,0,0,21.62-.22c15.58-4.54,18.5,4.79,18.38,16-.27,26.6-1.77,53.18-2.38,79.78-1.2,52.12-2,104.25-3.2,156.36-.87,37.17-2.16,74.32-3.21,111.48a31.82,31.82,0,0,0,.77,5.43c1.73-.74,3.7-1.16,5.15-2.27,48.15-36.84,94-76.3,130.48-125.09,19.69-26.31,37.74-53.88,55.8-81.36,20.2-30.75,42.13-60.76,58.45-93.52,12.37-24.83,19.69-53,24.65-80.52,7.27-40.37,10.72-81.46,15.12-122.31,1.09-10.08-.18-20.45-.8-30.66-1.81-29.81-2.55-59.76-6.14-89.36a856.3,856.3,0,0,0-16.1-93.16c-13.06-55.39-45.09-97.67-94.43-126.3-2.63-1.52-10.15,0-11.31,2.21a472.3,472.3,0,0,0-20.66,44.64c-10.78,27.34-15.5,55.56-9.51,84.93,2.12,10.38,4.19,23.14,16.91,22.06,9.76-.83,19.73-7.78,28.08-14,7.22-5.42,11.49-14.73,18.62-20.33,4-3.14,11.18-2.25,16.93-3.17-.48,5.34-.41,10.81-1.61,16-.87,3.78-4,7-5.11,10.76-8.91,29.74-56.18,47-80.06,41.51-25.4-5.85-37.89-24.38-44.33-47.61-15.87-57.25,4.64-103.42,45.43-142.62,17.84-17.15,32.28-16.11,54.39-3.07,26.6,15.69,49.35,34.72,65.36,61.24,24.15,40,36.26,83.81,40.89,130,2.84,28.36,6.48,56.64,9.42,85,1.22,11.83,2.4,23.77,2.11,35.62-.68,28-1,56.15-3.77,84-3.32,34-6.77,68.28-14.29,101.5-5.28,23.33-15.57,46.13-27,67.33-15.57,28.8-33.95,56.14-52,83.55-18.71,28.46-37,57.38-58.09,84a804.25,804.25,0,0,1-68.56,75.69c-23.15,22.65-50.39,41.2-72.74,64.51-7.52,7.84-6.42,24.69-7.76,37.58-4.1,39.4-5.91,79.1-11.61,118.25a596.65,596.65,0,0,1-20.89,90.89c-6.89,22.15-15,46.12-29.85,62.92-12.63,14.33-33.69,26.07-56.38,21.69-22.39-4.32-45.07-8.83-66.36-16.67s-32.37-26.44-32.39-49c0-22.06-1.45-45.63,5.52-65.86,11.11-32.25,26.19-64.43,52.87-87.32,31.57-27.09,65.46-51.46,98.12-77.28,2.75-2.17,5.26-6.32,5.51-9.73,2.06-28.82,4.73-57.67,5-86.53.31-38-1.41-76-2.33-114a55.84,55.84,0,0,0-1.14-7.37c-1.6,2.25-4,4.28-4.67,6.78-8,29.3-21.35,56.13-42.41,77.75-10.85,11.14-25.2,22.74-39.67,25.63-27.4,5.48-39.82-9.17-44.73-39.8-5-31.32,0-61.51,6.15-91.79.94-4.63,4.9-8.56,6.73-13.11,1.09-2.7.75-6,1.05-9-2.2,1.61-5.22,2.75-6.47,4.91q-22,38-43.47,76.28c-9.42,16.81-17.4,34.53-27.94,50.58-18.15,27.63-58.12,23.6-70-9C3112.42,784.31,3106,753,3101.84,722c-5.22-38.71-5.64-78-9.33-117-1.56-16.47-5.81-32.73-9.68-48.89-1-4-5.2-7.27-7.94-10.87-3,2.93-7.22,5.31-8.79,8.87-17.06,38.51-31.89,78.12-51,115.58-19.43,38.12,0,75.07-1.67,112.45-.13,2.93,2.82,5.88,3.62,9,6.22,24.47-2.94,34.11-30.09,31.86-17.71-1.47-24.9-8.17-26.76-26-1.2-11.56-1.37-23.22-2.44-34.8-.2-2.13-2.51-4.07-3.85-6.09a44.36,44.36,0,0,0-3.84,5.23q-22.87,42.74-45.58,85.57c-1.7,3.21-2.3,7.17-4.48,9.93-3.32,4.19-7.65,10.93-11.42,10.84-17-.39-34.89.08-50.58-5.27-16.86-5.76-28-20.68-33.63-38.51-.54-1.7-2.3-3-3.5-4.52a39.74,39.74,0,0,0-2.18,5c-5.76,20.44-11.85,40.79-17.06,61.37-5.73,22.61-21.88,37.52-37.49,52.93-9.35,9.23-36.22,5.88-43.78-1.07-15.43-14.16-33.39-26.74-40.77-47.67-8-22.62-18-45.08-21.86-68.48-6.54-39.88-8.92-80.44-13.11-120.71a47.88,47.88,0,0,0-1.63-6.62c-1.16,2.07-2.84,4-3.39,6.22-4.9,19.83-8.59,40-14.63,59.5-7.34,23.66-16.09,47.39-34.78,64.7-18.48,17.12-38.65,32.4-58,48.6-23.34,19.56-50.13,20-77.26,12.17-20.92-6.06-37.7-19.82-43.6-41.28-5.48-19.92-7-40.94-10.24-61.48-.2-1.25-.56-2.48-.85-3.72a21.22,21.22,0,0,0-2.7,3.91c-4.81,11.9-8.71,24.25-14.42,35.7-8.71,17.49-24.3,26.63-38.73,24.33-23.72-3.77-40.21-18.24-44.12-38.19-1.79-9.13-4.15-18.16-6.71-27.11-1-3.33-3.23-6.27-4.91-9.39-1.73,3.35-4.18,6.53-5.06,10.09-3.18,12.87-3.84,26.76-9.11,38.65-10.48,23.63-20.57,48.32-36,68.68-21.49,28.41-49.2,32.92-79.41,12.85-11.89-7.9-19.43-26.23-23.48-41.28-9.58-35.62-5.07-72,.83-108,3.11-19,5-38.42,10.87-56.52,4.13-12.65,14.18-23.36,21.54-35,1.54-2.43,2.89-5,4.33-7.46-2.78.08-5.68-.33-8.34.3-47.78,11.39-89.95,33.16-123.53,69.45-5.17,5.58-7.57,15-8.51,23-2.08,17.64-3.94,35.57-3.06,53.24,1.07,21.45,5.51,42.71,7.64,64.14,1.36,13.63,1.19,27.41,1.69,41.12,0,.94-.44,2.18,0,2.78,2.33,3.16,4.87,6.17,7.34,9.23-6,3.36-12.38,10.1-17.83,9.4-12.57-1.63-24.91-6.28-36.8-11.07-2.9-1.17-5-7.55-5.22-11.66-1.43-23.5-2.15-47-3.28-70.56-.09-2-1.49-3.84-2.28-5.76-1.21,1.91-2.84,3.68-3.56,5.76-8.87,25.71-14.91,52.84-27.15,76.82-11.68,22.88-24.57,46.93-50.31,59-22.46,10.5-48.08,1.1-58.8-23-16.5-37.06-25-76.21-28.74-116.5-.68-7.38-2.42-14.66-3.66-22-2.66,6.29-5.58,12.48-7.94,18.88-8.94,24.19-18.07,48.31-26.38,72.71-4.87,14.31-16.11,23-29.21,24.31-50.34,5-60.94-13.2-75.13-53.58-12.51-35.59-15.93-74.46-22.37-112.06-2.46-14.34-2-29.17-3.18-43.76-.19-2.37-1.72-4.63-2.64-6.94-.74,2.09-1.91,4.13-2.15,6.27-5.77,51.78-23.11,99.05-54.18,141.16-21,28.48-61.28,28.26-80.62-1.11-6.31-9.59-11.1-20.18-16.63-30.29-1-1.81-2.24-3.47-3.37-5.2a55,55,0,0,0-2,6.25c-4.45,22.76-7,46.09-13.7,68.14-7.5,24.55-25.48,41.85-48.84,52.68s-46,2.77-60.59-20.84c-23.07-37.39-23.52-76.64-9.65-117,12.92-37.63,28.13-74.37,56.63-103,16.3-16.4,35-31,61.15-27.31,1.47.21,4.88-2.93,4.9-4.54.21-15.61.52-31.26-.55-46.81-.51-7.42.1-10.87,8.5-11.6,32.62-2.85,31.68-2.37,31.54,30.33-.12,30.16,2.82,60.46,6.31,90.48a672.51,672.51,0,0,0,13.53,75.68c2.66,11.33,9.16,22,15.26,32.21,9.23,15.41,21.83,15.43,33.21.73,28.16-36.39,43.94-78,49.73-123.24,4.64-36.29,7.41-72.82,11.86-109.13,1.06-8.69-1.17-11.17-9.31-11.59-16.7-.87-33.72-.69-50-4-48.94-9.95-93.25-42.76-80-102.38,3.8-17.15,21.61-32.25,35.49-45.7,7.34-7.12,19.89-9.25,30.45-12.46,3.46-1.05,8,1.58,12.12,2.53-2.2,6.73-3.07,18.31-6.82,19.34-15.57,4.25-19.69,16.25-24.51,28.6-8.67,22.25-1,61.46,16.39,77.31,19.94,18.19,42.8,29.85,70.93,24.49,3.14-.6,7.76-5.27,7.87-8.19,2.34-62.38,4.18-124.78,6-187.18.18-6.23-2.11-13-.39-18.62,4-13.22,17.59-13.61,27.72-14.83,24.26-2.91,30.4,5.61,29.32,32.94-1,25.29-.46,50.64-1,76-.69,30.28-2,60.54-2.74,90.81-.6,25.24-.18,25.88,23.85,17.81,25.77-8.66,51.27-18.22,76.44-28.48,4.28-1.75,9.09-9.11,8.94-13.73-1-32.08-3.81-64.11-4.83-96.19-.32-10.08,2.52-20.42,5.11-30.33.64-2.46,8.28-5.75,8.75-5.21,9.25,10.61,28.36-11.37,32.6,8.58,3.1,14.62,1.33,30.37,1,45.61-.4,21.18-1.57,42.34-1.92,63.52,0,1.22,5.11,4.17,6.62,3.51,18.27-8,36-17.38,54.49-24.8,37.22-14.93,74.48-29.92,112.42-42.83,23.2-7.89,46.74-4.87,67.73,9.33,2.14,1.45,3.18,4.53,4.74,6.85-3.87,1.71-9.71,6-11.33,4.76-28.53-21.71-59.21-15.85-88.19-4.46-46.4,18.23-91.52,39.7-137.31,59.5-7.16,3.1-8.13,6.8-7.32,14.5,1.51,14.32.67,28.91.47,43.39-.66,50.24-.49,100.51-2.47,150.7-2.22,56.23-2.15,112.29,9.81,167.42,3.15,14.51,12.46,28,20.61,41,4.81,7.62,24.33,1.75,33.17-8.83,40.52-48.5,55.69-105.48,56-167.42C1953.33,753.71,1953.26,739.08,1953.26,722.12Zm-264.58,90-3.08.91c6.25,22.49,11.71,45.25,19.29,67.29,2,5.74,11.48,13.68,15.87,12.75,7.61-1.61,15.92-8,20.47-14.73,24-35.45,34.53-76.46,41.64-117.6,5.85-33.86,6-68.79,7.64-103.29,1.55-31.88,1.91-63.82,2.38-95.73,0-1.91-4.32-5.91-5.54-5.52-32.56,10.39-65.05,21-97.32,32.3-3,1-6.11,6.45-6.24,9.93-.53,14.54-.11,29.13.27,43.7Q1686.27,727.08,1688.68,812.08ZM3385.76,980.52l2.41,0-1.38-15.39c-2.14.59-4.73.6-6.36,1.86-15.17,11.67-30.76,22.91-45.07,35.57s-26.2,28.15-41.06,40c-40.62,32.4-55.52,76.29-58.51,125.63-1,16.82,2.85,33.22,16.8,44.88,24.5,20.47,70.81,14.77,89.28-11.51,13.66-19.43,27.67-38.33,30-64s11-51,13.31-76.77C3387.63,1034.23,3385.76,1007.29,3385.76,980.52ZM1459.63,745.65l-2.44-.3c-1.11-15.23-1.13-30.66-3.88-45.59-1-5.59-7.56-12.13-13.14-14.4-6.67-2.71-15.64-2.48-15.42,9.6,0,1.35-2.78,2.62-4,4.16-6.73,8.78-16.49,16.71-19.45,26.64-9.71,32.56-18.77,65.54-24.56,99-4.93,28.45-1.44,57.1,15.76,82.09,8.25,12,27.46,12.85,34.69.34,8.36-14.46,17.58-29.93,20.12-46C1453.41,823,1455.77,784.21,1459.63,745.65Zm1864,23.26-1.52.11c.47,5.9-.15,12.17,1.7,17.6,2.29,6.74,6.63,12.78,10.08,19.12,4.22-4.37,9-8.36,12.54-13.21a187.29,187.29,0,0,0,13.94-21.8c23.95-44.08,29.81-93.15,38.28-141.45.33-1.87-2.94-6.32-4.09-6.18-8.1,1-16.31,2.3-24,4.84a86.09,86.09,0,0,0-19.36,9.57c-8,5.17-20.33,10-22.23,17.22-5.06,19.32-6.68,39.8-7.51,59.9C3320.67,732.67,3322.78,750.82,3323.63,768.92Zm-1690-104.1c-1,3.71-1.72,5.17-1.63,6.58.07.93,1.33,1.78,2.06,2.67a22.53,22.53,0,0,0,1.24-4.28C1635.41,668.87,1634.73,667.87,1633.65,664.82Z"/><path d="M61.54,823.94c-.92-48.07,11.31-83.16,30.13-117.69,16.67-30.58,39.85-51.51,70.83-64.79,7-3,15.63-3.7,23.35-3.16,8.27.58,10.73-2.54,10.88-9.75.29-14.09.17-28.22,1.31-42.25.3-3.64,4-9.14,7.2-10a251.52,251.52,0,0,1,40-7.85c2.64-.28,8.64,6.8,8.75,10.61.91,31.53-.41,63.15,1.31,94.62,2.08,38,6.47,75.93,9.87,113.89a4.65,4.65,0,0,0,.4,1.95q7.59,12.46,15.27,24.88c4.35-7.19,10.63-13.86,12.72-21.65,8-29.69,17.58-59.44,20.62-89.77,2.1-21-5.82-43-8.78-64.56-1.57-11.45-3.12-23.1-2.52-34.54.17-3.29,7.61-8.16,12.21-8.82a79.91,79.91,0,0,1,27.05.55c5.4,1.11,12.14,5.45,14.36,10.17,4,8.55,4.66,18.6,7.7,27.7.59,1.77,7.08,3.82,8.53,2.71,19.75-15.13,42.38-21.88,66.64-24.78,1.67-.2,4.3-4.28,4.12-6.35-3.33-37.06-8.24-74-10.3-111.14-2.29-41.25-2.06-82.63-2.93-124-.2-9.6-1.06-19.25-.35-28.78.31-4.17,3.76-11.58,5.83-11.6a318,318,0,0,1,46.18,2.7c2.9.4,6.35,8,6.84,12.62,3,27.84,5.79,55.72,7.39,83.66.94,16.46-.92,33.07-.7,49.6.49,37.9,1.35,75.8,2.35,113.69.39,14.57,1.13,29.16,2.54,43.66,1.28,13.2,24.64,24.63,41.18,21.61,24.32-4.43,43.85-15.56,57.37-36.83,1.78-2.79,6.84-3.5,10.39-5.17.93,6.37,4.4,13.72,2.36,18.93-9.09,23.29-28.49,37.37-48.15,51.44-19.21,13.75-36.76,10.29-55.11-.76-.92-.55-7.22,4.15-7,6,2.32,25.73,5,51.44,8.25,77.07,6.09,48,10.21,96.45,19.83,143.76,5.93,29.2,19.52,57.08,31.62,84.7,6,13.68,20.62,12.52,27.14-1.34C595.41,979.5,601,963.25,608,947.63c1.06-2.37,5.65-3.16,8.6-4.67.84,2.05,2.62,4.23,2.38,6.14-2.5,19.69-4.37,39.54-8.35,58.94-3.54,17.25-21.87,28.18-39.48,26.09-13.64-1.62-27.85-1-40.85-4.71-16.47-4.7-29.61-16-34.86-32.91-12.55-40.43-27.58-80.55-35-122-8-44.37-9.12-90.05-12-135.24-1.67-26.67-.67-53.5-1.19-80.26-.37-19.25-16.56-26.74-35.47-21.49-17.29,4.8-30.14,12.52-38.41,28-1.42,2.67-3.11,5.93-2.76,8.68,4.89,39.25,9.87,78.49,15.31,117.66,4.45,32.1,4.72,32-28.32,36.47-2.2.3-4.2,2-6.4,2.38-9.59,1.57-19,6.92-20.08-11.5-1.4-23.75-7.78-47.21-12-70.79-.17-1-.35-1.94-.53-2.91a29.21,29.21,0,0,1-.79,3C309.11,771.5,301.82,795,291.26,817c-5,10.46-15.78,18.48-24.83,26.62-10.07,9.06-19.87,5.83-29-2.76-12.31-11.62-21.28-24.73-23.12-42.22-.47-4.43-4.15-8.52-6.36-12.77-1.58,4.17-3.22,8.32-4.74,12.5-3.8,10.43-7.18,21-11.43,31.29-6.42,15.47-11.17,32.32-20.73,45.65-14.87,20.73-42.26,23.49-67.44,12.36C71.6,873.51,63.21,846.61,61.54,823.94Zm53.37-9c4,16.43,7.3,32.79,11.93,48.76,3.2,11,18.09,14,24.56,4.8,8.75-12.51,18.47-25.31,23.14-39.5,10-30.34,20.15-61.24,24.24-92.69,3.58-27.59-1-56.25-2.2-84.42-.07-1.52-2.45-3.78-4.14-4.24-12-3.24-31,4.21-35.55,16.13-11.35,29.92-22.36,60.08-31.3,90.78C120,773.69,118.45,794,114.91,814.93Z"/><path d="M1022.18,678.13c1.6-59,3.33-118.07,4.73-177.11.64-26.85,12.12-49.79,23.63-73.21,11.27-23,55.52-16,61.92,5.1,5.18,17,12.55,34.13,13.54,51.5,2,35.61,2.86,71.65-.33,107.1-3.17,35.16-20.12,64.79-50.13,85.78-3.49,2.44-6.25,8.63-6.18,13,.6,36.14,1.88,72.26,3.09,108.39.71,21.11,1.51,42.22,2.72,63.31.12,2.17,4.14,6.27,5,5.95,19-7.52,38.68-14,56.35-24.07,8.85-5,13.93-16.63,20.87-25.13a105.76,105.76,0,0,1,7.53-7.59c.69,3.55,2.82,7.58,1.83,10.58-7.66,23.29-24.9,36.87-47.24,45-10.91,3.94-21.6,8.59-32.72,11.79-12.77,3.68-15.36,11.91-13,23.52a29.61,29.61,0,0,1,.65,8.91c-2.79,25.57-5.34,51.18-8.78,76.67-3.51,26-8.66,51.79-11.75,77.83-2.55,21.49-6.85,41.3-17.49,61.19-22.56,42.17-79.9,28.09-98.86,2.25-18.6-25.34-21.31-53.67-15.31-82.52,5.28-25.38,12-51.19,23-74.47,12.84-27.12,35-48.14,60-65.2,9.56-6.55,14.45-13,14.42-25.69-.09-43.8,1.76-87.59,2.58-131.39a257.74,257.74,0,0,0-1.53-29.77c-.12-1.21-4.88-3.47-6.43-2.8-14.78,6.4-29.56,12.92-43.74,20.52-2.41,1.29-2.61,7.83-2.76,12-.61,16.62-1.91,33.32-.88,49.85,1.3,20.86,2.36,40.55-13.05,58-7.76,8.79-11.23,21.23-18.18,30.92C932.24,893,925.45,897.7,920,898c-31.48,1.53-59-11-80.9-31.84-23.26-22.2-33.26-52.26-29.88-84.4,2.7-25.73,5.6-52.64,15.43-76.08,9.66-23,25.51-48.21,54.82-48.54,19.86-.22,40.56-2.32,61.08,9.49,20.84,12,18.27,30.73,24.69,47.28,1,2.69,6,6.48,7.74,5.86,14.61-5.2,29.88-9.75,42.81-17.9,5.52-3.48,5.95-15,8.69-22.92Zm-7,252.33-.91-14c-4.05,2-9.24,2.92-12,6-16.51,18.86-36.22,36.24-47.56,57.93-12,22.92-18.18,49.7-22.61,75.53-4.69,27.36-1.48,54.68,22.86,74.26,15,12,32.23,8,38.71-9.77,4-10.88,8.56-22.07,9.56-33.42C1007.9,1034.46,1011.38,981.8,1015.18,930.45Zm102.43-442.63c-5.86-19.13-11.05-37.88-17.73-56.09-1.16-3.18-10.91-6.91-12.69-5.47-5.45,4.42-10.67,10.65-12.91,17.23C1061,482.32,1058,522.76,1058.9,563.36c.6,27.18,3.73,54.3,5.82,81.44.52,6.76,1.39,13.5,2.1,20.24,4.1-3.86,7.85-8.21,12.36-11.51,26.3-19.21,35.66-47.39,37.95-77.53C1119.35,546.86,1117.62,517.41,1117.62,487.82ZM949.56,772.62l-3.13-.63c0-6.64-.3-13.3.08-19.92.39-6.92-1.27-10.21-9.34-9.81-10.23.5-20.56-.42-30.8-1.27-11.51-1-23-2.53-34.45-3.83.38,12.2-1.48,25,1.58,36.47,7.64,28.64,17.28,56.77,26.84,84.85,1,2.86,9.19,6.51,10.11,5.64,8.6-8.15,19.92-15.93,23.58-26.26C941.48,816.92,944.64,794.46,949.56,772.62Zm-32.08-45.27c4.76-.27,12.2.08,19.23-1.46,3-.66,7.22-5.17,7.31-8.05a55.36,55.36,0,0,0-3-20.6c-4.65-12.56-10.63-24.66-26.46-26.31s-29.75,6-36.33,19.62c-11.41,23.65-7.11,31.81,18.75,35.16C903,726.49,908.95,726.69,917.48,727.36Z"/><path class="cls-1" d="M1633.65,664.82c1.07,3.06,1.76,4.05,1.67,5a22.53,22.53,0,0,1-1.24,4.28c-.73-.89-2-1.74-2.06-2.67C1631.93,670,1632.67,668.52,1633.65,664.82Z"/></svg>